<?xml version="1.0" encoding="UTF-8"?>
<svg id="Capa_2" xmlns="http://www.w3.org/2000/svg" viewBox="0 0 120.74 120.74">
  <defs>
    <style>
      .cls-1 {
        fill: #fcb403;
      }

      .cls-2 {
        fill: #fff;
      }

      .cls-3 {
        fill: #3458a3;
      }
    </style>
  </defs>
  <g id="Capa_1-2" data-name="Capa_1">
    <g>
      <circle class="cls-2" cx="60.37" cy="60.37" r="60.37"/>
      <g>
        <path class="cls-3" d="M57.09,44.46s-.01,0-.02,0c-.11-.05-.21-.1-.32-.14-.02,0-.04-.02-.07-.02-.09-.03-.18-.06-.28-.08-.04-.01-.08-.02-.13-.03-.07-.02-.15-.03-.22-.04-.06-.01-.13-.02-.19-.03-.06,0-.11-.01-.17-.02-.08,0-.17-.01-.25-.01-.02,0-.05,0-.07,0-.02,0-.04,0-.06,0-.09,0-.19,0-.28.01-.04,0-.07,0-.11.01-.1.01-.19.03-.29.04-.03,0-.06.01-.1.02-.1.02-.2.05-.3.08-.02,0-.04.01-.06.02-.11.04-.23.08-.34.12,0,0,0,0,0,0-.74.31-1.4.85-1.85,1.58l-10.72,17.53c-.28.46-.94.46-1.22,0l-10.72-17.53c-.45-.74-1.11-1.27-1.85-1.58,0,0,0,0,0,0-.11-.05-.22-.09-.34-.12-.02,0-.04-.01-.06-.02-.1-.03-.2-.06-.3-.08-.03,0-.06-.01-.1-.02-.1-.02-.19-.03-.29-.04-.04,0-.07,0-.11-.01-.09,0-.19-.01-.28-.01-.02,0-.04,0-.06,0-.02,0-.05,0-.07,0-.08,0-.17,0-.25.01-.06,0-.11.01-.17.02-.06,0-.13.02-.19.03-.07.01-.15.03-.22.04-.04.01-.08.02-.13.03-.09.03-.19.05-.28.08-.02,0-.04.02-.07.02-.11.04-.22.09-.32.14,0,0-.01,0-.02,0-1.33.64-2.26,2-2.26,3.58v28.09c0,2.17,1.67,4.07,3.85,4.13,2.25.07,4.09-1.73,4.09-3.97v-11.63c0-.72.95-.99,1.33-.37l5.79,9.47c.32.71.84,1.33,1.55,1.77.6.37,1.27.56,1.92.58.06,0,.11,0,.17,0,.06,0,.11,0,.17,0,.66-.02,1.32-.21,1.92-.58.71-.44,1.24-1.06,1.55-1.77l5.79-9.47c.38-.62,1.33-.35,1.33.37v11.46c0,2.17,1.67,4.07,3.85,4.13,2.25.07,4.09-1.73,4.09-3.97v-28.26c0-1.58-.92-2.94-2.26-3.58Z"/>
        <circle class="cls-1" cx="40.67" cy="72.15" r="3.96"/>
        <path class="cls-3" d="M98.79,70.38c0,6.26-5.17,9.93-14.9,9.93h-19.56v-36.22h18.52c9.52,0,14.18,3.88,14.18,9.47,0,3.47-1.76,6.26-4.86,7.86,4.09,1.45,6.62,4.55,6.62,8.95ZM74.47,51.49v6.98h7.04c3.41,0,5.17-1.19,5.17-3.52s-1.76-3.46-5.17-3.46h-7.04ZM88.44,69.24c0-2.48-1.86-3.67-5.38-3.67h-8.59v7.35h8.59c3.52,0,5.38-1.19,5.38-3.67Z"/>
      </g>
    </g>
  </g>
</svg>