<?xml version="1.0" encoding="UTF-8"?>
<svg xmlns="http://www.w3.org/2000/svg" xmlns:xlink="http://www.w3.org/1999/xlink" viewBox="0 0 120.74 120.74">
  <defs>
    <style>
      .cls-1 {
        fill: #70b609;
      }

      .cls-2 {
        isolation: isolate;
      }

      .cls-3 {
        fill: #e4af00;
      }

      .cls-4 {
        fill: #4c0076;
      }

      .cls-5 {
        fill: #fff;
      }

      .cls-6 {
        fill: #9dda48;
        mix-blend-mode: lighten;
        opacity: .64;
      }

      .cls-7 {
        fill: url(#Degradado_sin_nombre_2-2);
      }

      .cls-8 {
        fill: url(#Degradado_sin_nombre_9);
      }

      .cls-9 {
        fill: url(#Degradado_sin_nombre_2);
      }

      .cls-10 {
        fill: #c64d48;
      }

      .cls-11 {
        fill: url(#Degradado_sin_nombre_7);
        opacity: .53;
      }
    </style>
    <radialGradient id="Degradado_sin_nombre_9" data-name="Degradado sin nombre 9" cx="60.37" cy="59.76" fx="60.37" fy="59.76" r="36.57" gradientUnits="userSpaceOnUse">
      <stop offset="0" stop-color="#54a7ac"/>
      <stop offset="1" stop-color="#036469"/>
    </radialGradient>
    <radialGradient id="Degradado_sin_nombre_2" data-name="Degradado sin nombre 2" cx="43.81" cy="70.05" fx="43.81" fy="70.05" r="4.3" gradientUnits="userSpaceOnUse">
      <stop offset=".16" stop-color="#25328d"/>
      <stop offset=".72" stop-color="#4c0076"/>
    </radialGradient>
    <radialGradient id="Degradado_sin_nombre_2-2" data-name="Degradado sin nombre 2" cx="78.11" cy="68.69" fx="78.11" fy="68.69" r="4.3" xlink:href="#Degradado_sin_nombre_2"/>
    <linearGradient id="Degradado_sin_nombre_7" data-name="Degradado sin nombre 7" x1="62.6" y1="92" x2="62.6" y2="69.07" gradientUnits="userSpaceOnUse">
      <stop offset=".28" stop-color="#4c0076"/>
      <stop offset=".84" stop-color="#9dda48" stop-opacity=".64"/>
    </linearGradient>
  </defs>
  <g class="cls-2">
    <g id="Capa_2">
      <g id="Capa_1-2" data-name="Capa_1">
        <g>
          <circle class="cls-5" cx="60.37" cy="60.37" r="60.37"/>
          <g>
            <path class="cls-8" d="M96.43,56.23l-1.62,2.23c-.49.68-.92,1.34-1.24,1.97-.34.62-.56,1.21-.72,1.9-.3,1.37-.41,3.11-.55,4.86l-.08.98c0,.06-.04.1-.07.15-.34,2.39-1.4,4.7-3.05,6.48-.75.82-1.63,1.52-2.59,2.1.59,0,1.18,0,1.77-.09.96-.09,1.92-.32,2.86-.57h0c.97-.26,1.96.32,2.22,1.28.05.2.07.4.06.59-.08,1.24-.49,2.21-.97,3.09-.48.88-1.08,1.63-1.75,2.32-1.34,1.37-3,2.4-4.85,2.99-1.85.6-3.89.68-5.78.27-.96-.21-1.87-.54-2.73-.95-.32.79-.69,1.55-1.13,2.29-.89,1.5-2.03,2.88-3.39,4.03-2.73,2.33-6.3,3.47-9.66,3.58-3.32.13-6.8-.4-9.87-2.05-1.52-.83-2.89-1.92-4.03-3.21-.57-.65-1.08-1.34-1.53-2.07-.52-.89-.93-1.69-1.29-2.93,0-.03,0-.05,0-.08-.88.88-1.93,1.65-3.17,2.16-1.64.68-3.56.85-5.32.49-1.76-.36-3.36-1.09-4.8-1.99-.73-.45-1.39-.96-2.04-1.5-.85-.72-1.52-1.4-2.43-2.53-.05-.06-.09-.17-.08-.24.09-2.07,1.63-2.85,2.87-2.49l.09.03c1.76.53,3.59.53,5.34-.07.05-.02.1-.04.16-.06-1.44-.56-2.77-1.38-3.89-2.43-1.95-1.83-3.25-4.35-3.64-6.98-.03-.11-.06-.22-.08-.33v-.05c-.27-1.73-.5-3.46-.9-4.81-.21-.67-.47-1.24-.85-1.84-.36-.6-.84-1.23-1.37-1.87l-1.77-2.12c-.86-1.07-1.29-2.5-1.34-3.73-.06-1.25.17-2.33.43-3.32.27-.99.61-1.89.95-2.74.68-1.7,1.39-3.29,1.73-4.74.16-.7.24-1.36.12-1.84-.05-.27-.12-.4-.29-.71-.26-.43-.53-.85-.76-1.29-.93-1.77-1.49-3.75-1.57-5.73-.06-2.1.25-4.09,1.19-6.08.04-.08.11-.15.2-.18.32-.12.6-.11.83-.04,0-.05-.01-.1-.01-.16,0-.58.03-1.03.34-1.83.03-.08.1-.16.17-.2.85-.41,1.51.12,1.55.74l.02.38c0,.11,0,.48.07.74.06.28.15.56.27.83.24.55.61,1.06,1.03,1.53.89.93,2.01,1.72,3.24,2.38l.95.49c.37.19.75.38,1.12.6.75.44,1.49.97,2.19,1.73.69.74,1.31,1.81,1.51,2.97.2,1.15.06,2.2-.1,3.04-.36,1.7-.69,2.95-.69,4.08,0,.28.01.54.05.83.06.3.07.61.15.9.1.59.31,1.14.52,1.68.58,1.41,1.61,2.63,2.92,3.72-.02-.08-.05-.17-.08-.25-.26-.98-.51-1.98-.58-3.02-.16-1.02-.08-2.08-.04-3.13,0,0,0-.02,0-.03.21-2.12.91-4.22,2.04-6.06.55-.93,1.22-1.78,1.95-2.58.38-.39.75-.78,1.17-1.13.59-.52,1.08-.9,2.18-1.55.07-.04.17-.06.25-.05,1.94.36,2.55,1.86,2.13,3.02l-.16.43c-.22.59-.5,1.17-.67,1.75,0,.01,0,.02,0,.03-.12.57-.35,1.14-.35,1.7-.17,1.14-.01,2.21.36,3.23.36,1.02.97,2.01,1.79,2.89.42.43.84.88,1.33,1.26.3.25.66.51.98.74.57-.19,1.14-.35,1.72-.49,2.19-.49,4.4-.46,6.5-.21,1.42.15,2.78.48,4.11.88.06-.06.12-.11.19-.16l.19-.15c.36-.27.93-.72,1.35-1.13.46-.42.85-.89,1.24-1.35.76-.93,1.3-1.96,1.59-3.01.3-1.04.38-2.12.13-3.25-.04-.56-.31-1.1-.47-1.67,0-.01,0-.02-.01-.03-.22-.57-.54-1.12-.79-1.69l-.51-1.14c-.03-.08-.04-.16-.02-.24.57-1.99,2.22-2.35,3.32-1.74.62.35,1.02.63,1.47.97.44.33.85.69,1.25,1.05.78.75,1.51,1.55,2.12,2.44,1.25,1.76,2.1,3.8,2.46,5.9,0,0,0,.02,0,.03.11,1.05.27,2.09.18,3.12.01,1.05-.18,2.05-.36,3.05-.02.09-.04.17-.06.26,1.22-1.18,2.17-2.47,2.65-3.92.17-.55.34-1.12.4-1.71.06-.29.05-.6.08-.9.02-.29.02-.55,0-.83-.08-1.12-.5-2.35-.97-4.02-.22-.83-.44-1.86-.31-3.03.12-1.17.66-2.28,1.3-3.07.64-.8,1.35-1.38,2.06-1.88.36-.25.72-.47,1.07-.68l.91-.55c1.18-.74,2.24-1.61,3.06-2.6.39-.5.72-1.04.92-1.6.11-.28.17-.57.21-.85.05-.26.02-.62.02-.74v-.68c0-.09.03-.18.09-.25.68-.68,1.48-.39,1.72.19.25.6.29,1,.34,1.5,0,.05,0,.1,0,.15.47-.17.98.03,1.2.45.96,1.83,1.36,3.69,1.45,5.69.06,1.98-.36,3.99-1.17,5.82-.2.46-.44.89-.67,1.34-.15.32-.21.46-.23.73-.08.48.04,1.13.25,1.82.44,1.42,1.27,2.96,2.06,4.61.4.83.8,1.7,1.14,2.67.33.97.63,2.03.66,3.28.04,1.23-.29,2.69-1.08,3.81Z"/>
            <path class="cls-10" d="M77.81,86.66c.2-.75.35-1.51.41-2.28-.31-.18-.61-.38-.9-.59-.22-.16-.49-.28-.78-.34-1.09-.22-2.15.48-2.37,1.57v.06c-.05.19-.15.57-.25.86-.1.31-.21.63-.34.94-.24.62-.53,1.23-.86,1.81-.66,1.16-1.5,2.19-2.48,3.04-1.96,1.73-4.56,2.6-7.32,2.8-2.8.23-5.65-.12-8.08-1.3-1.22-.58-2.35-1.34-3.32-2.3-.48-.48-.93-1-1.32-1.55-.39-.53-.78-1.19-1-1.67l-.05-.12c-.45-1-1.99-1.24-2.71.23-.04.08-.04.18-.02.26.36,1.24.77,2.04,1.29,2.93.45.73.96,1.42,1.53,2.07,1.14,1.29,2.51,2.38,4.03,3.21,3.07,1.65,6.54,2.18,9.87,2.05,3.37-.12,6.93-1.26,9.66-3.58,1.36-1.15,2.5-2.53,3.39-4.03.34-.57.63-1.17.9-1.78.26-.75.5-1.51.7-2.28Z"/>
            <path class="cls-1" d="M66.38,49.4c.36-.27.93-.72,1.35-1.13.46-.42.85-.89,1.24-1.35.76-.93,1.3-1.96,1.59-3.01.3-1.04.38-2.12.13-3.25-.04-.56-.31-1.1-.47-1.67,0-.01,0-.02-.01-.03-.22-.57-.54-1.12-.79-1.69l-.51-1.14c-.03-.08-.04-.16-.02-.24.57-1.99,2.22-2.35,3.32-1.74.62.35,1.02.63,1.47.97.44.33.85.69,1.25,1.05.78.75,1.51,1.55,2.12,2.44,1.25,1.76,2.1,3.8,2.46,5.9v.03c.12,1.05.27,2.09.18,3.12.01,1.05-.18,2.05-.36,3.05-.19.99-.55,1.92-.82,2.87,0,.01,0,.02-.01.04-.41,1.01-.87,2-1.31,2.99-.04.08-.11.15-.19.19-1.04.39-1.7-.42-1.51-1.14l.03-.1.7-2.61s0-.03,0-.04c.12-.88.34-1.74.38-2.61.15-1.75.01-3.46-.4-5.06-.47-1.59-1.25-3.02-2.27-4.27-.51-.62-1.1-1.18-1.72-1.69-.32-.24-.64-.49-.98-.7-.17-.11-.36-.22-.54-.32-.2-.11-.24-.37-.09-.53l2.18-2.44c.16-.17.43-.15.55.05.35.59.72,1.17,1.02,1.81v.03c.33.81.72,1.59.88,2.49.48,1.74.44,3.72-.03,5.51-.49,1.81-1.41,3.42-2.52,4.77-.55.68-1.17,1.28-1.83,1.84-.87.75-1.64,1.29-3.05,2.02-.08.04-.17.05-.25.03-2.66-.65-2.82-3.21-1.38-4.29l.19-.15Z"/>
            <path class="cls-1" d="M52.08,53.92c-.93-.45-1.56-.86-2.28-1.39-.69-.51-1.35-1.07-1.95-1.71-1.2-1.27-2.23-2.81-2.84-4.58-.6-1.76-.78-3.72-.42-5.49.1-.91.42-1.71.69-2.54v-.03c.27-.66.59-1.26.91-1.87.11-.21.38-.26.55-.09l2.35,2.28c.16.16.13.42-.06.54-.17.11-.35.24-.51.36-.32.23-.62.5-.93.76-.59.55-1.14,1.15-1.6,1.81-.93,1.31-1.61,2.8-1.97,4.42-.3,1.62-.32,3.34-.04,5.07.1.86.38,1.71.56,2.58,0,.01,0,.03.01.04l.89,2.55.14.4c.03.09.03.19-.01.27-.49.99-1.53.86-1.88.2-.46-.86-.93-1.72-1.36-2.6,0-.01-.01-.02-.01-.03-.34-.93-.76-1.83-1.02-2.81-.26-.98-.51-1.98-.58-3.02-.16-1.02-.08-2.08-.04-3.13v-.03c.21-2.12.91-4.22,2.04-6.06.55-.93,1.22-1.78,1.95-2.58.38-.39.75-.78,1.17-1.13.59-.52,1.08-.9,2.18-1.55.07-.04.17-.06.25-.05,1.94.36,2.55,1.86,2.13,3.02l-.16.43c-.22.59-.5,1.17-.67,1.75,0,.01,0,.02,0,.03-.12.57-.35,1.14-.35,1.7-.17,1.14-.01,2.21.36,3.23.36,1.02.97,2.01,1.79,2.89.42.43.84.88,1.33,1.26.45.38,1.05.79,1.43,1.04l1,.66c.07.05.13.13.15.21.66,2.69-1.56,4.01-3.19,3.22Z"/>
            <path class="cls-4" d="M48.44,52.94c.88-.89,1.08-1.1,1.48-1.41.25-.2.49-.36.74-.53.49-.32,1-.63,1.52-.86,1.04-.51,2.12-.84,3.21-1.1,2.19-.49,4.4-.46,6.5-.21,2.12.22,4.13.84,6.06,1.52.95.39,1.89.77,2.8,1.21h.02c.99.55,1.97,1.06,2.92,1.63.08.05.14.12.16.21.26,1.01-.5,1.58-1.17,1.42l-.07-.02c-.94-.23-1.85-.49-2.77-.73h-.02s-2.74-.58-2.74-.58h-.02c-1.84-.26-3.66-.52-5.44-.46-1.78.02-3.51.24-5.12.68-.79.24-1.59.48-2.31.82-.37.15-.72.34-1.06.51-.16.09-.34.18-.48.28-.13.08-.34.22-.35.2-1.39,1.37-4.11.59-3.99-2.32,0-.09.05-.18.11-.24Z"/>
            <path class="cls-5" d="M60.61,81.51s-.05-.07-.08-.11c.03.04.06.07.08.11h0Z"/>
            <path class="cls-5" d="M46.17,73.63c-.76.53-1.67.86-2.67.9-2.74.1-5.04-2.05-5.14-4.79-.1-2.74,2.05-5.04,4.79-5.14s5.04,2.05,5.14,4.79c.04,1.23-.38,2.35-1.09,3.25,1.19-1.36,1.93-3.12,1.89-5,0-2.01-.83-4.02-2.3-5.48-1.46-1.46-3.5-2.36-5.64-2.36-2.14-.02-4.27.85-5.86,2.38-.73.7-1.32,1.54-1.76,2.47.26,1.33.36,2.57.44,3.78,0,.03.03.04.04.07.17,1.84,1.03,3.58,2.39,4.81,1.43,1.32,3.36,2.04,5.3,1.97,1.63,0,3.2-.62,4.47-1.64Z"/>
            <path class="cls-10" d="M31.83,60.17c.25.4.48.84.7,1.28.25-.38.52-.75.82-1.1,1.42-1.68,3.4-2.88,5.57-3.46-.62-.44-1.22-.92-1.79-1.46-1.29-1.24-2.41-2.78-3.13-4.51-.33-.87-.61-1.77-.75-2.68-.1-.45-.11-.91-.16-1.36-.03-.47-.03-.97,0-1.45.12-1.92.82-3.57,1.17-4.81.19-.63.27-1.11.25-1.47-.02-.35-.13-.67-.43-1.08-.29-.4-.75-.82-1.26-1.22-.26-.2-.53-.4-.82-.59l-1-.69c-1.33-.96-2.63-2.07-3.62-3.54-.32-.5-.61-1.04-.83-1.6-.24,1.28-.28,2.69-.07,3.97.27,1.58.85,3.06,1.7,4.38.22.33.47.64.69.95.33.43.73,1.07.9,1.67.42,1.25.34,2.42.22,3.47-.33,2.07-1.01,3.79-1.53,5.45-.52,1.62-.93,3.25-.77,4.35.09.54.24.88.52,1.2l.11.12.24.25.48.49c.32.34.64.67.95,1.03.63.71,1.27,1.48,1.85,2.39Z"/>
            <path class="cls-10" d="M90.07,42.77c-.2-1.03-.36-2.2-.03-3.47.13-.61.49-1.28.78-1.73.2-.33.43-.66.62-1,.76-1.37,1.23-2.9,1.39-4.49.12-1.3-.02-2.7-.35-3.96-.19.58-.43,1.13-.72,1.66-.89,1.53-2.11,2.73-3.37,3.78l-.95.76c-.27.21-.53.42-.78.64-.48.44-.91.89-1.17,1.31-.27.43-.35.76-.35,1.11,0,.36.12.84.35,1.45.44,1.21,1.25,2.81,1.51,4.72.07.47.11.97.11,1.44-.02.46,0,.91-.06,1.37-.07.92-.29,1.83-.56,2.73-.6,1.78-1.61,3.39-2.81,4.72-.54.58-1.11,1.1-1.7,1.58,2.2.42,4.27,1.48,5.81,3.06.33.33.62.68.9,1.04.18-.46.38-.91.6-1.33.52-.95,1.1-1.76,1.68-2.52.29-.39.59-.73.88-1.1l.44-.53.22-.26.1-.13c.26-.33.39-.69.44-1.23.08-1.11-.44-2.7-1.08-4.29-.63-1.62-1.42-3.29-1.9-5.33Z"/>
            <path class="cls-5" d="M60.49,81.36l-.06-.07s.02.03.05.06l.03.03s-.02-.03-.02-.03Z"/>
            <path class="cls-5" d="M87.9,62.73c-.5-.89-1.15-1.69-1.93-2.34-1.69-1.42-3.88-2.14-6.02-1.96-2.13.16-4.11,1.19-5.46,2.75-1.37,1.55-2.05,3.62-1.91,5.63.1,1.88.96,3.59,2.24,4.86-.77-.84-1.27-1.93-1.31-3.16-.1-2.74,2.05-5.04,4.79-5.14,2.74-.1,5.04,2.05,5.14,4.79.1,2.74-2.05,5.04-4.79,5.14-.99.03-1.93-.23-2.72-.71,1.34.92,2.94,1.44,4.57,1.32,1.94-.06,3.82-.91,5.15-2.33,1.27-1.33,2.01-3.12,2.05-4.97,0-.03.02-.05.03-.08,0-1.22,0-2.46.17-3.8Z"/>
            <path class="cls-3" d="M81.54,79.22c-.45-.18-.88-.38-1.3-.59-3.02-.02-6.03-1.22-8.2-3.3-2.27-2.18-3.59-5.29-3.62-8.38-.05-3.1,1.18-6.17,3.31-8.34,1.07-1.11,2.37-1.97,3.78-2.55h0s.7-2.62.7-2.62c0-.01,0-.03,0-.04.12-.88.34-1.74.38-2.61.15-1.75.01-3.46-.4-5.06-.18-.62-.43-1.2-.7-1.78-.06.58-.15,1.16-.3,1.71-.49,1.81-1.41,3.42-2.52,4.77-.52.64-1.1,1.2-1.71,1.73.92.5,1.83.98,2.71,1.51.08.05.14.12.16.21.25,1.01-.5,1.58-1.17,1.42l-.07-.02c-.94-.23-1.85-.49-2.77-.73,0,0-.01,0-.02,0l-1.79-.38c-.08.04-.15.08-.23.12-.08.04-.17.05-.25.03-.42-.1-.77-.25-1.07-.44-1.65-.23-3.27-.43-4.87-.38-1.78.02-3.51.24-5.12.68-.79.24-1.58.48-2.31.82-.37.15-.72.34-1.06.51-.16.09-.34.18-.48.28-.13.08-.34.22-.35.2-1.39,1.37-4.11.59-3.99-2.32,0-.09.05-.18.11-.24.38-.39.64-.65.83-.84-.5-.4-.98-.81-1.42-1.28-1.2-1.27-2.23-2.81-2.84-4.58-.19-.55-.32-1.12-.42-1.69-.23.59-.43,1.19-.57,1.82-.3,1.62-.32,3.34-.04,5.07.1.86.38,1.71.56,2.58,0,.01,0,.03.01.04l.89,2.55h0c1.44.49,2.8,1.26,3.95,2.29,2.28,2.02,3.73,5,3.89,8.09.19,3.09-.92,6.28-3.02,8.61-1.64,1.8-3.86,3.07-6.25,3.61-.22.22-.44.42-.67.63-.49.42-1,.82-1.53,1.18-1.07.72-2.23,1.35-3.5,1.77-.51.17-1.04.31-1.57.42.67.42,1.37.78,2.08,1.02,1.18.38,2.41.55,3.65.26,1.24-.26,2.46-.91,3.61-1.76l.02-.02c.39-.29.94-.21,1.22.18.2.27.21.61.08.9.7-.29,1.49.02,1.79.69l.05.12c.22.48.61,1.14,1,1.67.4.55.84,1.08,1.32,1.55.97.96,2.1,1.72,3.32,2.3,2.43,1.18,5.28,1.53,8.08,1.3,2.76-.2,5.36-1.08,7.32-2.8.98-.86,1.82-1.89,2.48-3.04.33-.58.62-1.19.86-1.81.13-.31.24-.62.34-.94.09-.29.19-.67.23-.86v-.06c.23-1.09,1.3-1.79,2.38-1.57.29.06.55.18.78.34,1.13.82,2.34,1.43,3.6,1.72,1.25.28,2.54.24,3.76-.13,1.22-.37,2.37-1.08,3.32-1.98.17-.16.33-.34.48-.51-1.16.09-2.33.02-3.48-.14-1.18-.18-2.34-.49-3.46-.92ZM72.12,82.52c-.48.61-.98,1.18-1.5,1.76-.26.29-.52.58-.8.86-.3.3-.52.55-1.04.91l-.12.07-.2.09c-.08.03-.26.09-.39.11-.15.03-.4.02-.48,0-.42-.06-.52-.12-.69-.17-.28-.11-.48-.2-.69-.3-.4-.19-.75-.38-1.1-.58-.16-.09-.32-.19-.48-.28-.5.6-1,1.2-1.51,1.79-.69.79-1.86.92-2.69.32l-.18-.13-1.67-1.21c-.13-.09-.26-.2-.38-.3l-.54.25-1.77.85c-.99.47-2.14.22-2.84-.55-1.1-1.21-2.16-2.46-3.15-3.78-.05-.07-.08-.16-.07-.25.25-2.74,2.74-3.28,4.04-2.05.52.5,1.02,1.01,1.52,1.53.09-.04.18-.08.27-.12l.97-.41.52-.21c.21-.07.32-.13.77-.25.02,0,.24-.05.35-.07-.01,0,.18-.02.32-.02.15,0,.3.01.44.04l.11.02h.05s.17.06.26.1c.34.12.76.42,1.05.82l.26.26.7.65.12.11c.43-.38.85-.76,1.28-1.15l.2-.18c.66-.59,1.65-.59,2.3-.01.53.47,1.09.97,1.63,1.41.27.22.55.44.8.63l.05.04c.07-.04.14-.09.2-.13.3-.19.6-.4.9-.61l1.81-1.31h0c.44-.32,1.06-.23,1.38.22.27.37.24.86-.03,1.19Z"/>
            <path class="cls-6" d="M44.56,54.52s0,.03.01.04l.89,2.55h0c1.44.49,2.8,1.26,3.95,2.29,2.28,2.02,3.73,5,3.89,8.09.04.72.01,1.43-.08,2.15.34-.08.68-.17,1.02-.25,1.4-.34,2.82-.64,4.26-.77,1.46-.13,2.95-.01,4.4.13,1.45.14,2.9.38,4.35.47.49.03.98.06,1.47.1-.17-.77-.26-1.56-.27-2.35-.05-3.1,1.18-6.17,3.31-8.34,1.07-1.11,2.37-1.97,3.78-2.55h0s.7-2.62.7-2.62c0-.01,0-.03,0-.04.12-.88.34-1.74.38-2.61.15-1.75.01-3.46-.4-5.06-.18-.62-.43-1.2-.7-1.78-.06.58-.15,1.16-.3,1.71-.49,1.81-1.41,3.42-2.52,4.77-.52.64-1.1,1.2-1.71,1.73.92.5,1.83.98,2.71,1.51.08.05.14.12.16.21.25,1.01-.5,1.58-1.17,1.42l-.07-.02c-.94-.23-1.85-.49-2.77-.73,0,0-.01,0-.02,0l-1.79-.38c-.08.04-.15.08-.23.12-.08.04-.17.05-.25.03-.42-.1-.77-.25-1.07-.44-1.65-.23-3.27-.43-4.87-.38-1.78.02-3.51.24-5.12.68-.79.24-1.58.48-2.31.82-.37.15-.72.34-1.06.51-.16.09-.34.18-.48.28-.13.08-.34.22-.35.2-1.39,1.37-4.11.59-3.99-2.32,0-.09.05-.18.11-.24.38-.39.64-.65.83-.84-.5-.4-.98-.81-1.42-1.28-1.2-1.27-2.23-2.81-2.84-4.58-.19-.55-.32-1.12-.42-1.69-.23.59-.43,1.19-.57,1.82-.3,1.62-.32,3.34-.04,5.07.1.86.38,1.71.56,2.58Z"/>
            <circle class="cls-9" cx="43.81" cy="70.05" r="4.3"/>
            <circle class="cls-7" cx="78.11" cy="68.69" r="4.3"/>
            <path class="cls-11" d="M85,80.15c-1.18-.18-2.34-.49-3.46-.92-.45-.18-.88-.38-1.3-.59-3.02-.02-6.03-1.22-8.2-3.3-1.56-1.5-2.66-3.45-3.21-5.52-.03,0-.06,0-.08,0-.73-.07-1.46-.08-2.19-.16-1.44-.15-2.88-.34-4.32-.46-1.44-.12-2.9-.19-4.33-.01-1.63.2-3.22.61-4.81.99-.38,2.18-1.36,4.27-2.86,5.93-1.64,1.8-3.86,3.07-6.25,3.61-.22.22-.44.42-.67.63-.49.42-1,.82-1.53,1.18-1.07.72-2.23,1.35-3.5,1.77-.51.17-1.04.31-1.57.42.67.42,1.37.78,2.08,1.02,1.18.38,2.41.55,3.65.26,1.24-.26,2.46-.91,3.61-1.76l.02-.02c.39-.29.94-.21,1.22.18.2.27.21.61.08.9.7-.29,1.49.02,1.79.69l.05.12c.22.48.61,1.14,1,1.67.4.55.84,1.08,1.32,1.55.97.96,2.1,1.72,3.32,2.3,2.43,1.18,5.28,1.53,8.08,1.3,2.76-.2,5.36-1.08,7.32-2.8.98-.86,1.82-1.89,2.48-3.04.33-.58.62-1.19.86-1.81.13-.31.24-.62.34-.94.09-.29.19-.67.23-.86v-.06c.23-1.09,1.3-1.79,2.38-1.57.29.06.55.18.78.34,1.13.82,2.34,1.43,3.6,1.72,1.25.28,2.54.24,3.76-.13,1.22-.37,2.37-1.08,3.32-1.98.17-.16.33-.34.48-.51-1.16.09-2.33.02-3.48-.14ZM72.12,82.52c-.48.61-.98,1.18-1.5,1.76-.26.29-.52.58-.8.86-.3.3-.52.55-1.04.91l-.12.07-.2.09c-.08.03-.26.09-.39.11-.15.03-.4.02-.48,0-.42-.06-.52-.12-.69-.17-.28-.11-.48-.2-.69-.3-.4-.19-.75-.38-1.1-.58-.16-.09-.32-.19-.48-.28-.5.6-1,1.2-1.51,1.79-.69.79-1.86.92-2.69.32l-.18-.13-1.67-1.21c-.13-.09-.26-.2-.38-.3l-.54.25-1.77.85c-.99.47-2.14.22-2.84-.55-1.1-1.21-2.16-2.46-3.15-3.78-.05-.07-.08-.16-.07-.25.25-2.74,2.74-3.28,4.04-2.05.52.5,1.02,1.01,1.52,1.53.09-.04.18-.08.27-.12l.97-.41.52-.21c.21-.07.32-.13.77-.25.02,0,.24-.05.35-.07-.01,0,.18-.02.32-.02.15,0,.3.01.44.04l.11.02h.05s.17.06.26.1c.34.12.76.42,1.05.82l.26.26.7.65.12.11c.43-.38.85-.76,1.28-1.15l.2-.18c.66-.59,1.65-.59,2.3-.01.53.47,1.09.97,1.63,1.41.27.22.55.44.8.63l.05.04c.07-.04.14-.09.2-.13.3-.19.6-.4.9-.61l1.81-1.31h0c.44-.32,1.06-.23,1.38.22.27.37.24.86-.03,1.19Z"/>
            <path class="cls-5" d="M53.88,81.16c.7.66,1.37,1.34,2.03,2.04.23.24,0,.64-.32.58l-.75-.15c-.33-.06-.38-.51-.08-.65s.6-.27.91-.4l.97-.41.52-.21c.21-.07.32-.13.77-.25.02,0,.24-.05.35-.07-.01,0,.18-.02.32-.02.15,0,.3.01.44.04l.11.02h.05s.17.06.26.1c.39.14.9.51,1.18,1,.14.24.23.49.28.71.05.21.05.51.05.34,0-.12-.02-.24-.05-.35-.05-.24-.14-.47-.26-.67l-.06-.1c-.03-.05-.1-.13-.12-.16l-.06-.07s.02.03.05.06l.3.3.7.65.86.79c.22.21.09.58-.21.6l-1.09.07c-.33.02-.5-.38-.26-.6.7-.63,1.4-1.26,2.1-1.89l.2-.18c.66-.59,1.65-.59,2.3-.01.53.47,1.09.97,1.63,1.41.27.22.55.44.8.63l.31.22s.08.03-.16,0c-.03,0-.23-.02-.34.01-.09,0-.22.05-.25.07-.02,0-.05.02-.07.04h0c.12-.02.48-.26.76-.43.3-.19.6-.4.9-.61l1.81-1.31h0c.44-.32,1.06-.23,1.38.22.27.37.24.86-.03,1.19-.48.61-.98,1.18-1.5,1.76-.26.29-.52.58-.8.86-.3.3-.52.55-1.05.91l-.12.07-.2.09c-.08.03-.26.09-.39.11-.15.03-.4.02-.48,0-.42-.06-.52-.12-.69-.17-.28-.11-.49-.2-.69-.3-.4-.19-.75-.38-1.1-.58-.49-.28-.96-.55-1.43-.84-.19-.12-.12-.42.11-.43l.97-.07c.31-.02.49.33.29.57-.64.77-1.27,1.54-1.93,2.29-.69.79-1.86.92-2.69.32l-.18-.13-1.67-1.21c-.28-.2-.55-.42-.84-.65l-.45-.38c-.09-.08-.17-.15-.31-.29l-.14-.16s-.11-.14-.15-.21l-.08-.12c-.12-.21-.22-.45-.27-.7-.03-.12-.05-.25-.05-.37,0-.17,0,.13.04.34.04.22.13.47.27.71.28.49.78.86,1.17.99.09.04.22.07.25.08h.05s.1.03.1.03c.13.03.27.04.41.04.13,0,.32-.02.29-.02.07,0,.24-.05.23-.04.14-.03-.07.04-.17.09l-.41.18-.87.41-1.77.85c-.99.47-2.14.22-2.84-.55-1.1-1.21-2.16-2.46-3.15-3.78-.05-.07-.08-.16-.07-.25.25-2.74,2.74-3.28,4.04-2.05Z"/>
            <path class="cls-4" d="M53.88,79.41c.7.66,1.37,1.34,2.03,2.04.23.24,0,.64-.32.58l-.75-.15c-.33-.06-.38-.51-.08-.65s.6-.27.91-.4l.97-.41.52-.21c.21-.07.32-.13.77-.25.02,0,.24-.05.35-.07-.01,0,.18-.02.32-.02.15,0,.3.01.44.04l.11.02h.05s.17.06.26.1c.39.14.9.51,1.18,1,.14.24.23.49.28.71.05.21.05.51.05.34,0-.12-.02-.24-.05-.35-.05-.24-.14-.47-.26-.67l-.06-.1c-.03-.05-.1-.13-.12-.16l-.06-.07s.02.03.05.06l.3.3.7.65.86.79c.22.21.09.58-.21.6l-1.09.07c-.33.02-.5-.38-.26-.6.7-.63,1.4-1.26,2.1-1.89l.2-.18c.66-.59,1.65-.59,2.3-.01.53.47,1.09.97,1.63,1.41.27.22.55.44.8.63l.31.22s.08.03-.16,0c-.03,0-.23-.02-.34.01-.09,0-.22.05-.25.07-.02,0-.05.02-.07.04h0c.12-.02.48-.26.76-.43.3-.19.6-.4.9-.61l1.81-1.31h0c.44-.32,1.06-.23,1.38.22.27.37.24.86-.03,1.19-.48.61-.98,1.18-1.5,1.76-.26.29-.52.58-.8.86-.3.3-.52.55-1.05.91l-.12.07-.2.09c-.08.03-.26.09-.39.11-.15.03-.4.02-.48,0-.42-.06-.52-.12-.69-.17-.28-.11-.49-.2-.69-.3-.4-.19-.75-.38-1.1-.58-.49-.28-.96-.55-1.43-.84-.19-.12-.12-.42.11-.43l.97-.07c.31-.02.49.33.29.57-.64.77-1.27,1.54-1.93,2.29-.69.79-1.86.92-2.69.32l-.18-.13-1.67-1.21c-.28-.2-.55-.42-.84-.65l-.45-.38c-.09-.08-.17-.15-.31-.29l-.14-.16s-.11-.14-.15-.21l-.08-.12c-.12-.21-.22-.45-.27-.7-.03-.12-.05-.25-.05-.37,0-.17,0,.13.04.34.04.22.13.47.27.71.28.49.78.86,1.17.99.09.04.22.07.25.08h.05s.1.03.1.03c.13.03.27.04.41.04.13,0,.32-.02.29-.02.07,0,.24-.05.23-.04.14-.03-.07.04-.17.09l-.41.18-.87.41-1.77.85c-.99.47-2.14.22-2.84-.55-1.1-1.21-2.16-2.46-3.15-3.78-.05-.07-.08-.16-.07-.25.25-2.74,2.74-3.28,4.04-2.05Z"/>
          </g>
        </g>
      </g>
    </g>
  </g>
</svg>