<?xml version="1.0" encoding="UTF-8"?>
<svg id="Capa_2" xmlns="http://www.w3.org/2000/svg" xmlns:xlink="http://www.w3.org/1999/xlink" viewBox="0 0 120.74 120.74">
  <defs>
    <style>
      .cls-1 {
        fill: #f4d3b5;
      }

      .cls-2 {
        fill: #651410;
      }

      .cls-3 {
        fill: #fff;
      }

      .cls-4 {
        fill: url(#Degradado_sin_nombre_38);
      }
    </style>
    <radialGradient id="Degradado_sin_nombre_38" data-name="Degradado sin nombre 38" cx="61.17" cy="61.94" fx="61.17" fy="61.94" r="28.96" gradientUnits="userSpaceOnUse">
      <stop offset="0" stop-color="#e13b14"/>
      <stop offset=".33" stop-color="#ca220b"/>
      <stop offset=".75" stop-color="#b10903"/>
      <stop offset="1" stop-color="#a90000"/>
    </radialGradient>
  </defs>
  <g id="Capa_1-2" data-name="Capa_1">
    <g>
      <circle class="cls-3" cx="60.37" cy="60.37" r="60.37"/>
      <path class="cls-1" d="M30.63,81.43c1.85-1.29,3.58-2.92,4.3-5.06.41-1.22.46-2.53.62-3.82.72-5.98,3.89-11.63,8.61-15.37,1.63-1.29,3.49-2.38,5.55-2.71,1.52-.24,3.06-.04,4.59-.09s3.16-.4,4.23-1.49c1.15-1.17,1.56-3.07,3.02-3.82.63-.32,1.36-.37,2.07-.39,1.58-.03,3.17.1,4.72.37,1.38.24,2.78.63,3.84,1.54,1.43,1.24,1.95,3.2,2.4,5.04.39,1.6.78,3.23.63,4.87-.07.79-.27,1.57-.21,2.35.06.85.41,1.66.57,2.5.42,2.3-.63,4.59-1.79,6.61-2.3,4.03-5.17,7.78-8.78,10.7-3.61,2.92-8,4.97-12.62,5.38-1.25.11-2.51.11-3.72.43-1.39.38-2.62,1.17-3.78,2.02-2.07,1.54-3.97,3.32-5.63,5.29-.51.61-1.04,1.26-1.8,1.5-.91.28-12.15-10.41-11.55-12.38.59-1.93,3.17-2.42,4.71-3.49Z"/>
      <g>
        <path class="cls-2" d="M38.82,97.52c-.4,0-.77-.16-1.05-.44-.57-.58-.57-1.52.01-2.09l6.9-6.82c-.2-.04-.36-.08-.44-.1-.79-.19-1.27-.99-1.08-1.78.16-.66.75-1.12,1.44-1.12.12,0,.23.01.35.04,1.4.34,3.86.74,6.19.74,2.67,0,4.6-.52,5.6-1.51l16.87-16.47c.35-.36,1.07-1.3.16-2.23-.31-.31-.65-.47-1.01-.47-.47,0-.9.28-1.17.51l-7.44,7.43c-.28.28-.65.43-1.04.43s-.77-.15-1.04-.43c-.62-.63-.62-1.57-.04-2.14l7.42-7.34.08-.07,3.95-3.94c.44-.45,1.05-1.35.17-2.24-.31-.31-.65-.47-1-.47-.42,0-.8.22-1.04.41l-1.25,1.24s-.08.06-.09.06l-10.08,9.96c-.28.28-.65.43-1.04.43s-.77-.16-1.05-.44c-.28-.28-.43-.65-.43-1.05,0-.39.16-.76.44-1.04l11.23-11.1c.1-.1.21-.19.32-.28l1.24-1.23c.22-.21.8-.87.81-1.46,0-.16-.03-.42-.38-.77-.29-.29-.63-.44-1.02-.44-.82,0-1.59.65-1.59.66l-13,12.86c-.28.28-.65.43-1.04.43s-.77-.16-1.05-.44c-.28-.28-.43-.65-.43-1.05,0-.39.16-.76.44-1.04l8.87-8.77.07-.1,2.63-2.6c.18-.18.65-.76.66-1.3,0-.18-.04-.46-.42-.84-.3-.31-.65-.46-1.03-.46-.68,0-1.26.48-1.37.58l-12.61,12.47s-.23.25-.3.32l-3.29,3.23c-.28.28-.64.43-1.04.43s-.77-.16-1.05-.44c-.28-.28-.43-.65-.43-1.05,0-.39.16-.76.44-1.04l3.48-3.44c2.18-2.26,2.1-4.18,2.06-4.54-.33-.77-.6-.89-.6-.89h0c-.15,0-.51.25-.68.43l-9.52,9.24c-4.81,5.88-1.91,13.78-1.88,13.85.29.76-.1,1.61-.85,1.9-.17.06-.35.1-.53.1-.62,0-1.16-.37-1.38-.95-.02-.05-.08-.24-.18-.52l-6.78,6.7c-.28.28-.65.43-1.04.43s-.77-.16-1.05-.44c-.57-.58-.57-1.51.01-2.09l8.1-8.01c-.34-2.51-.21-4.9.37-7.12-4.38-5.21-6.79-9.56-7.18-12.92-1.21-10.61,6.39-20.47,16.94-21.98.73-.1,1.46-.16,2.19-.16,7.38,0,12.81,5.46,14.9,7.94,2.09-2.48,7.53-7.94,14.91-7.94.72,0,1.45.05,2.18.16,10.55,1.51,18.15,11.37,16.94,21.98-1.11,9.77-29.82,33.6-33.09,36.29-.26.22-.6.34-.94.34-.31,0-.61-.1-.87-.28-1.25-.91-2.63-1.95-4.11-3.09-1.4.51-3.12.77-5.12.77-.87,0-1.78-.05-2.78-.15l-8.43,8.34c-.28.28-.65.43-1.04.43ZM58.88,86.46c.76.58,1.51,1.15,2.24,1.69,10.49-8.72,30.38-26.87,31.15-33.61,1.03-9.04-5.44-17.44-14.42-18.72-.58-.08-1.16-.12-1.73-.12-8.11,0-13.66,8.14-13.71,8.22-.27.41-.73.65-1.22.65s-.95-.24-1.23-.65c-.23-.33-5.74-8.22-13.74-8.22-.57,0-1.14.04-1.71.12-8.98,1.28-15.46,9.68-14.42,18.72.28,2.48,2.17,5.97,5.46,10.09.49-.94,1.08-1.83,1.76-2.65.04-.04.07-.08.11-.12l9.49-9.21s1.18-1.35,2.81-1.35c.17,0,.35.01.53.05,1.26.22,2.23,1.2,2.89,2.89.03.07.05.14.07.22,0,.04.03.14.04.3l7.79-7.71c.97-.86,2.26-1.37,3.46-1.37s2.18.45,3.06,1.33c.48.48.83,1.04,1.04,1.66.61-.23,1.22-.35,1.81-.35,1.15,0,2.17.45,3.04,1.32.83.84,1.26,1.86,1.23,2.93-.02.58-.17,1.18-.45,1.77.56.23,1.08.58,1.54,1.05,1.26,1.28,1.62,2.87,1.02,4.5-.42,1.13-1.18,1.88-1.21,1.91l-.94.94c.44.22.86.53,1.24.92,1.26,1.28,1.62,2.87,1.02,4.5-.42,1.13-1.18,1.88-1.21,1.91l-16.8,16.4Z"/>
        <path class="cls-2" d="M46.28,32.86c7.33,0,12.68,5.34,14.9,8.01,2.22-2.67,7.58-8.01,14.91-8.01.7,0,1.42.05,2.16.15,10.48,1.5,18.04,11.3,16.83,21.84-1.11,9.72-29.78,33.53-33.05,36.21-.25.2-.55.31-.86.31-.28,0-.56-.09-.79-.26-1.34-.97-2.74-2.03-4.16-3.13-1.57.59-3.4.79-5.15.79-.99,0-1.95-.07-2.83-.16,0,0,0,.01-.01.02l-8.46,8.37c-.26.26-.61.39-.95.39s-.7-.13-.96-.4c-.52-.53-.52-1.39.01-1.91l7.07-6.99c-.31-.07-.55-.12-.67-.15-.72-.18-1.17-.91-.99-1.63.15-.62.71-1.03,1.32-1.03.1,0,.21.01.32.04,1.28.31,3.78.74,6.22.74,2.27,0,4.5-.37,5.69-1.55l16.87-16.47c.37-.38,1.15-1.4.16-2.4-.37-.38-.75-.51-1.1-.51-.52,0-.98.31-1.25.54l-7.44,7.44c-.26.26-.61.4-.96.4s-.69-.13-.96-.4c0,0-.01-.02-.02-.03,0,0-.02-.01-.03-.02-.52-.53-.52-1.39.01-1.91l7.42-7.34s.08-.08.13-.11l3.9-3.9c.38-.39,1.17-1.41.17-2.42-.37-.38-.75-.51-1.09-.51-.45,0-.85.22-1.12.43l-1.26,1.25s-.07.04-.11.07l-10.06,9.95c-.26.26-.61.39-.95.39s-.7-.13-.96-.4c-.52-.53-.52-1.39.01-1.91l11.23-11.1c.1-.09.2-.18.31-.27l1.25-1.24c.24-.23.83-.92.84-1.54,0-.19-.04-.48-.42-.86-.35-.35-.74-.48-1.11-.48-.85,0-1.63.65-1.68.69l-13,12.86c-.26.26-.61.39-.95.39s-.7-.13-.96-.4c-.52-.53-.52-1.39.01-1.91l8.87-8.77s.04-.07.07-.1l2.63-2.6c.2-.2.69-.81.69-1.39,0-.2-.04-.51-.46-.93-.37-.37-.75-.5-1.12-.5-.73,0-1.36.53-1.46.61l-12.61,12.47c-.1.11-.19.21-.3.32-.02.02-.04.02-.06.04l-3.23,3.19c-.26.26-.61.39-.95.39s-.7-.13-.96-.4c-.52-.53-.52-1.39.01-1.91l3.48-3.44c2.18-2.26,2.14-4.2,2.1-4.64-.32-.77-.62-.99-.7-1-.01,0-.02,0-.03,0-.2,0-.59.28-.76.47l-9.51,9.24c-4.87,5.95-1.94,13.91-1.91,13.99.26.7-.09,1.48-.78,1.74-.16.06-.32.09-.48.09-.54,0-1.06-.33-1.26-.87-.02-.06-.12-.32-.24-.71l-6.92,6.85c-.26.26-.61.39-.95.39s-.7-.13-.96-.4c-.52-.53-.52-1.39.01-1.91l8.15-8.06c-.27-1.98-.33-4.53.38-7.19-4.38-5.2-6.81-9.55-7.19-12.9-1.2-10.55,6.35-20.35,16.83-21.84.74-.11,1.47-.16,2.17-.16M61.17,44.44c-.45,0-.87-.22-1.12-.6-.06-.09-5.68-8.28-13.84-8.28-.56,0-1.14.04-1.73.12-9.05,1.29-15.57,9.75-14.53,18.86.29,2.55,2.22,6.09,5.6,10.31.48-.95,1.08-1.89,1.83-2.8.03-.04.07-.07.1-.11l9.49-9.21c.07-.09,1.19-1.31,2.72-1.31.16,0,.33.01.5.05,1.21.22,2.16,1.16,2.8,2.81.02.06.05.13.06.2,0,.03.04.23.06.55l7.98-7.89c.8-.71,2.05-1.33,3.37-1.33,1,0,2.04.35,2.97,1.29.52.52.86,1.12,1.05,1.74.58-.23,1.22-.39,1.89-.39.98,0,2.02.34,2.95,1.28.81.82,1.22,1.8,1.19,2.84-.02.69-.23,1.31-.5,1.84.55.2,1.1.54,1.62,1.07,1.23,1.24,1.58,2.79.99,4.37-.4,1.07-1.1,1.79-1.18,1.86l-1.06,1.06c.47.21.93.52,1.37.97,1.23,1.24,1.58,2.79.99,4.37-.4,1.07-1.1,1.79-1.18,1.86l-16.87,16.47s-.02.02-.03.03c.83.63,1.64,1.25,2.44,1.84,9.16-7.61,30.46-26.66,31.27-33.76,1.04-9.11-5.48-17.57-14.53-18.86-.6-.09-1.18-.13-1.75-.13-8.17,0-13.76,8.19-13.81,8.28-.25.37-.67.6-1.12.6h0M46.28,32.61h0c-.73,0-1.47.05-2.21.16-10.62,1.52-18.26,11.44-17.05,22.12.38,3.37,2.79,7.72,7.16,12.94-.57,2.2-.69,4.56-.36,7.04l-8.06,7.97c-.63.62-.63,1.64-.01,2.26.3.31.71.48,1.14.48s.82-.16,1.13-.46l6.63-6.56c.06.18.1.3.12.33.23.61.84,1.03,1.49,1.03.2,0,.39-.04.57-.1.82-.31,1.24-1.24.93-2.07-.03-.08-2.91-7.9,1.87-13.74l9.49-9.21c.17-.19.48-.39.59-.4,0,.01.22.18.49.82.04.43.05,2.25-2.03,4.4l-3.47,3.43c-.3.3-.47.7-.48,1.13,0,.43.16.83.46,1.14.3.31.71.48,1.14.48s.83-.16,1.13-.46l3.23-3.19s0,0,0,0c0,0,.03-.02.06-.05.07-.07.13-.14.2-.21l.1-.11,12.61-12.47c.05-.05.63-.54,1.28-.54.35,0,.66.14.94.42.34.35.39.58.38.75,0,.5-.46,1.06-.62,1.22l-2.63,2.6s-.07.08-.08.11l-8.86,8.76c-.3.3-.47.7-.48,1.13,0,.43.16.83.46,1.14.3.31.71.48,1.14.48s.82-.16,1.13-.46l13-12.86h0s.73-.62,1.5-.62c.36,0,.66.13.93.4.31.31.35.53.34.68-.01.48-.47,1.09-.77,1.36l-1.26,1.24c-.1.08-.21.17-.31.27l-11.23,11.11c-.3.3-.47.7-.48,1.13,0,.43.16.83.46,1.14.3.31.71.48,1.14.48s.82-.17,1.13-.46l10.06-9.95s.06-.03.11-.07l1.26-1.25c.21-.15.56-.36.95-.36.32,0,.63.15.92.44.81.81.24,1.64-.18,2.06l-3.9,3.89-.03.03s-.06.05-.09.08l-7.43,7.34c-.3.3-.47.7-.48,1.13,0,.43.16.83.46,1.14.01.01.03.03.05.04.32.32.72.48,1.14.48s.83-.17,1.13-.47l7.44-7.44c.24-.21.63-.46,1.07-.46.32,0,.63.15.92.44.8.81.24,1.64-.17,2.05l-16.87,16.46c-.98.97-2.88,1.48-5.51,1.48-2.33,0-4.77-.4-6.16-.74-.12-.03-.25-.04-.38-.04-.74,0-1.38.5-1.56,1.22-.1.42-.04.85.19,1.21.22.37.57.62.99.72.05.01.13.03.22.05l-6.74,6.66c-.63.62-.63,1.64-.01,2.26.3.31.71.48,1.14.48s.82-.16,1.13-.46l8.4-8.3c.98.1,1.88.15,2.73.15,1.99,0,3.7-.26,5.1-.76,1.47,1.14,2.83,2.16,4.06,3.05.28.2.6.31.94.31.37,0,.73-.13,1.02-.36,3.27-2.69,32.02-26.55,33.14-36.37,1.22-10.68-6.43-20.6-17.05-22.12-.73-.1-1.47-.16-2.2-.16-7.33,0-12.74,5.33-14.91,7.87-2.17-2.54-7.58-7.87-14.9-7.87h0ZM61.17,44.69h0c.54,0,1.03-.26,1.33-.71.06-.08,5.54-8.17,13.61-8.17.57,0,1.15.04,1.72.12,8.92,1.27,15.34,9.61,14.32,18.59-.76,6.68-20.54,24.74-31.03,33.47-.67-.5-1.36-1.02-2.05-1.55l16.7-16.29c.08-.08.83-.83,1.24-1.96.62-1.67.25-3.32-1.05-4.63-.35-.35-.72-.64-1.12-.86l.82-.82c.08-.08.82-.83,1.24-1.95.62-1.67.25-3.32-1.05-4.63-.44-.45-.93-.79-1.46-1.03.25-.57.39-1.14.41-1.7.03-1.11-.41-2.16-1.27-3.03-.89-.9-1.94-1.36-3.13-1.36-.57,0-1.15.11-1.74.32-.22-.59-.57-1.13-1.03-1.59-.88-.89-1.97-1.36-3.14-1.36-1.23,0-2.56.52-3.54,1.4l-7.62,7.54s-.01-.06-.01-.06c-.02-.08-.04-.16-.07-.24-.68-1.74-1.68-2.74-2.99-2.97-.18-.03-.36-.05-.55-.05-1.69,0-2.9,1.39-2.92,1.41l-9.47,9.19s-.08.08-.12.13c-.64.78-1.21,1.62-1.68,2.5-3.2-4.04-5.03-7.45-5.31-9.88-1.02-8.97,5.4-17.31,14.32-18.59.56-.08,1.13-.12,1.69-.12,4.14,0,7.62,2.2,9.8,4.05,2.4,2.03,3.82,4.1,3.84,4.12.3.44.79.71,1.33.71h0Z"/>
      </g>
      <path class="cls-4" d="M77.86,35.69c-9.12-1.31-15.5,8.06-15.57,8.15-.25.37-.67.6-1.12.6h0c-.45,0-.87-.22-1.12-.6-.06-.09-6.49-9.45-15.57-8.15-9.05,1.29-15.57,9.75-14.53,18.86.29,2.55,2.22,6.09,5.6,10.31.48-.95,1.08-1.89,1.83-2.8.03-.04.07-.07.1-.11l9.49-9.21c.08-.1,1.45-1.59,3.23-1.27,1.21.22,2.15,1.16,2.8,2.81.03.06.05.13.06.2,0,.03.04.23.06.55l7.98-7.89c1.4-1.24,4.18-2.23,6.34-.04.52.52.86,1.12,1.05,1.74,1.43-.58,3.28-.69,4.84.89.81.82,1.22,1.8,1.19,2.84-.02.69-.23,1.31-.5,1.84.55.2,1.1.54,1.62,1.07,1.23,1.24,1.58,2.79.99,4.37-.4,1.07-1.1,1.79-1.18,1.86l-1.06,1.06c.47.21.93.52,1.37.97,1.23,1.24,1.58,2.79.99,4.37-.4,1.07-1.1,1.79-1.18,1.86l-16.87,16.47s-.02.02-.03.03c.83.63,1.64,1.25,2.44,1.84,9.16-7.61,30.46-26.66,31.27-33.76,1.04-9.11-5.48-17.57-14.53-18.86Z"/>
    </g>
  </g>
</svg>