<?xml version="1.0" encoding="UTF-8"?>
<svg id="Capa_2" xmlns="http://www.w3.org/2000/svg" viewBox="0 0 120.74 120.74">
  <defs>
    <style>
      .cls-1 {
        fill: #59211b;
      }

      .cls-2 {
        fill: #fff;
      }

      .cls-3 {
        fill: #d3d397;
      }

      .cls-4 {
        fill: #fdbc03;
      }

      .cls-5 {
        fill: #ad1310;
      }
    </style>
  </defs>
  <g id="Capa_1-2" data-name="Capa_1">
    <g>
      <circle class="cls-2" cx="60.37" cy="60.37" r="60.37"/>
      <g>
        <path class="cls-1" d="M57.79,76.95s-.02,0-.03-.01c-.67-.31-1.36-.57-1.99-.93-3.58-2.04-4.4-4.79-2.53-8.49.95-1.88,2.42-3.29,4.29-4.29.02,0,.03-.02.05-.02,4.66-1.8,10.5,3.53,9.46,8.26-.29,1.33-.89,2.68-1.67,3.79-1.68,2.35-4.19,2.81-7.56,1.7Z"/>
        <path class="cls-5" d="M52.7,59.14c0,2.24-.21,4.65-1.27,6.95-.52,1.14-1.25,2.22-2.08,3.12-.83.91-1.75,1.67-2.64,2.35l-.67.49-.51.41c-.34.29-.68.61-1,.94-.64.67-1.28,1.38-1.8,2.14-1.1,1.5-1.84,3.18-2.13,4.83-.3,1.65-.05,3.26.69,4.74v.02c.23.36.38.72.63,1.09.25.39.52.75.8,1.12.57.72,1.18,1.39,1.86,1.99,1.36,1.22,2.9,2.16,4.63,2.85,1.86.75,3.76,1.38,5.65,1.85.07.02.15.04.22.06h0s-.22-.06-.22-.06c2.59.62,5.34.55,7.89-.23.32-.09.64-.21.95-.32.31-.12.56-.26.84-.38l.42-.18.37-.24c.24-.17.52-.29.73-.49.93-.69,1.61-1.64,2.14-2.72,1.04-2.17,1.26-5,.88-7.67-.04-.33-.1-.66-.17-.97-.07-.35-.13-.54-.24-.94-.24-.77-.47-1.6-.65-2.47-.38-1.73-.48-3.77-.04-5.65.4-1.91,1.27-3.56,2.2-5.02,1.05-1.57,1.84-2.48,2.4-3.66.56-1.14.89-2.32.88-3.45-.01-1.13-.34-2.25-.97-3.23-.63-.96-1.61-1.92-2.69-2.69-.55-.39-1.13-.74-1.74-1.05-.3-.16-.61-.3-.92-.43l-1.02-.4-.26-.1c-.06-.02-.08-.03-.14-.05l-.49-.13c-.22-.06-.47-.11-.83-.26-.18-.07-.39-.17-.63-.33l-.14-.1h0s0,0,0-.01c-.2-.15-.86-.35-1.44-.41-1.23-.16-2.6-.03-3.93.31l-.72.19c-.07.02-.15,0-.21-.02-1.92-1.04-1.43-3.06-.06-3.5,1.65-.53,3.41-.85,5.29-.72.95.1,1.86.2,3.03.81l.24.15.12.08c.06.04-.02-.01-.02-.01-.07-.05-.11-.06-.11-.07l.29.06c.16.03.38.07.64.14.12.03.29.08.41.12l.29.1,1.18.4c.41.15.81.32,1.21.5.79.36,1.56.78,2.31,1.25,1.5.97,2.85,2.14,3.98,3.75,1.1,1.6,1.76,3.55,1.84,5.53.08,1.98-.43,3.89-1.19,5.55-.73,1.66-1.93,3.18-2.56,4.22-.7,1.17-1.25,2.35-1.47,3.5-.24,1.16-.19,2.3.11,3.6.15.65.34,1.32.57,2.03.1.35.28.9.36,1.31.11.44.19.88.26,1.32.28,1.75.34,3.5.17,5.28-.18,1.78-.6,3.59-1.41,5.32-.81,1.71-2,3.36-3.56,4.55-1.53,1.18-3.36,2.03-5.01,2.5-3.4,1.02-7.09,1.11-10.54.25h-.01c-.07-.02-.14-.04-.2-.06h0s.22.06.22.06c-2.21-.55-4.3-1.29-6.35-2.15-2.18-.89-4.28-2.21-6.03-3.84-.88-.82-1.7-1.71-2.4-2.67-.35-.48-.69-.97-1-1.48-.32-.51-.59-1.11-.88-1.67-.29-.56-.45-1.21-.67-1.81-.19-.61-.27-1.27-.39-1.9,0-.01,0-.02,0-.03-.04-.64-.09-1.29-.06-1.93,0,0,0-.02,0-.02.07-.63.08-1.29.24-1.89.52-2.5,1.65-4.72,3.08-6.58.7-.95,1.5-1.81,2.34-2.63.43-.4.88-.79,1.36-1.16l.76-.54.62-.42c1.65-1.12,2.92-2.27,3.69-3.79.79-1.51,1.14-3.39,1.25-5.35l.04-.75c0-.07.04-.14.09-.19,1.58-1.51,3.34-.43,3.35,1.01Z"/>
        <path class="cls-3" d="M61.81,85.87l-13.39-2.9c-.16-.03-.26-.2-.21-.35l1.02-3.43c.04-.15.2-.23.35-.19l13.1,3.88c.15.04.23.2.19.35l-.72,2.44c-.04.14-.19.23-.33.19Z"/>
        <path class="cls-1" d="M56.64,73.94c1.02-4.15,2.15-8.26,3.38-12.34,1.21-4.09,2.52-8.14,3.85-12.18,2.81-8.33,5.74-16.61,9.24-24.7.03-.07.08-.12.15-.15,2.09-.93,3.49.65,3.14,2.09-2.03,8.3-4.57,16.44-7.24,24.53-1.36,4.04-2.74,8.06-4.23,12.06-1.55,4.26-3.22,8.47-5.01,12.64-.03.07-.08.12-.15.15-2.09.93-3.49-.65-3.14-2.09Z"/>
        <path class="cls-3" d="M71.13,21.23c1.73.2,3.33.73,4.89,1.35,1.7.71,3.37,1.52,4.86,2.77.05.05.09.11.1.18.2,1.27-.66,1.92-1.47,1.83-1.73-.2-3.33-.73-4.89-1.35-1.7-.71-3.37-1.52-4.86-2.77-.05-.05-.09-.11-.1-.18-.2-1.27.66-1.92,1.47-1.83Z"/>
        <path class="cls-3" d="M77.47,31.91c-1.73-.15-3.34-.63-4.92-1.2-1.72-.66-3.41-1.42-4.93-2.63-.05-.04-.1-.11-.11-.18-.23-1.26.61-1.94,1.41-1.87,1.73.15,3.34.63,4.92,1.2,1.72.66,3.41,1.42,4.93,2.63.05.04.1.11.11.18.23,1.26-.61,1.94-1.41,1.88Z"/>
        <path class="cls-3" d="M67.92,31.21c1.66.2,3.18.74,4.67,1.35,1.62.71,3.19,1.52,4.58,2.76.05.04.09.11.1.17.21,1.28-.67,1.92-1.47,1.83-1.66-.2-3.18-.74-4.67-1.35-1.62-.71-3.19-1.52-4.58-2.76-.05-.04-.09-.11-.1-.17-.21-1.28.67-1.92,1.47-1.83Z"/>
      </g>
      <path class="cls-4" d="M68.56,54.37c-1.17,3.44-2.35,6.88-3.62,10.29-.19.53-.4,1.05-.6,1.57,1.96,1.7,3.21,4.25,2.68,6.66-.29,1.33-.89,2.68-1.67,3.79-1.68,2.35-4.2,2.81-7.56,1.7-.01,0-.02,0-.03-.01-.67-.31-1.36-.57-1.99-.93-3.58-2.04-4.4-4.79-2.53-8.49.95-1.88,2.42-3.29,4.29-4.29.02,0,.03-.02.05-.02.68-.26,1.39-.36,2.1-.34.12-.42.24-.84.36-1.26,1.08-3.63,2.24-7.23,3.41-10.82-.29-.13-.8-.27-1.27-.32-1.01-.13-2.12-.06-3.21.16-.79.14-2.87.63-4.52,2.44-2.85,3.12-1.87,7.34-1.77,7.71-.02,1.31-.28,3.24-1.23,5.33-.52,1.14-1.25,2.22-2.08,3.12-.83.91-1.75,1.67-2.64,2.35l-.67.49-.51.41c-.34.29-.68.61-1,.94-.64.67-1.28,1.38-1.8,2.14-1.1,1.5-1.84,3.18-2.13,4.83-.31,1.65-.05,3.26.69,4.74,0,0,0,.01.01.02.21.36.37.72.62,1.09.25.39.52.75.8,1.12.57.72,1.18,1.39,1.86,1.99,1.36,1.22,2.9,2.16,4.63,2.85,1.86.75,3.76,1.38,5.65,1.85.07.02.15.04.22.06l-.22-.06c2.59.62,5.34.55,7.89-.23.32-.09.64-.21.95-.32.31-.12.56-.26.84-.38l.42-.18.37-.24c.24-.17.52-.29.73-.49.93-.69,1.61-1.64,2.14-2.72,1.04-2.17,1.26-5,.88-7.67-.04-.33-.1-.66-.17-.97-.07-.35-.13-.54-.24-.94-.24-.77-.47-1.6-.65-2.47-.38-1.73-.48-3.77-.04-5.65.4-1.91,1.27-3.56,2.2-5.02,1.05-1.57,1.84-2.48,2.4-3.66.56-1.14.89-2.32.88-3.45-.01-1.13-.34-2.25-.97-3.23-.63-.96-1.61-1.92-2.69-2.69-.39-.28-.8-.53-1.23-.77ZM62.14,87.1c-.04.14-.19.23-.33.19l-13.39-2.9c-.16-.03-.26-.2-.21-.35l1.02-3.43c.04-.15.2-.23.35-.19l13.1,3.88c.15.04.23.2.19.35l-.72,2.44Z"/>
    </g>
  </g>
</svg>