<?xml version="1.0" encoding="UTF-8"?>
<svg id="Capa_2" xmlns="http://www.w3.org/2000/svg" xmlns:xlink="http://www.w3.org/1999/xlink" viewBox="0 0 120.74 120.74">
  <defs>
    <style>
      .cls-1 {
        fill: #335396;
      }

      .cls-2 {
        fill: #635442;
      }

      .cls-3 {
        fill: #651410;
      }

      .cls-4 {
        fill: url(#Degradado_sin_nombre_13-2);
      }

      .cls-5 {
        fill: #fff;
      }

      .cls-6 {
        fill: #f38803;
      }

      .cls-7 {
        fill: #c7b299;
      }

      .cls-8 {
        fill: #fdbc03;
      }

      .cls-9 {
        fill: #d80363;
      }

      .cls-10 {
        fill: url(#Degradado_sin_nombre_13);
      }

      .cls-11 {
        fill: #901105;
      }
    </style>
    <linearGradient id="Degradado_sin_nombre_13" data-name="Degradado sin nombre 13" x1="49.34" y1="61.1" x2="77.75" y2="61.1" gradientUnits="userSpaceOnUse">
      <stop offset=".16" stop-color="#25328d"/>
      <stop offset=".72" stop-color="#4c0076"/>
    </linearGradient>
    <linearGradient id="Degradado_sin_nombre_13-2" data-name="Degradado sin nombre 13" x1="33.93" y1="44.16" x2="81.37" y2="44.16" xlink:href="#Degradado_sin_nombre_13"/>
  </defs>
  <g id="Capa_1-2" data-name="Capa_1">
    <g>
      <circle class="cls-5" cx="60.37" cy="60.37" r="60.37"/>
      <path class="cls-3" d="M49.71,67.07c-1.09-.45-2.1-1.05-2.86-1.78l-1.13.67,1.64,2.94c.03.06.06.11.08.17l1.33,3.35.57.05-.71-2.98c-.1-.41-.02-.85.23-1.2l.87-1.23Z"/>
      <path class="cls-11" d="M73.87,87.03c-.04-.79-.21-1.4-.48-1.87-.55-.02-1.07.18-1.61.26-.15.02-.29.04-.46.06-.07,0-.13.02-.2.02-.04,0-.08,0-.11.01,0,0-.08.01-.04,0-.13.02-.27.04-.4.08-.13.04-.22.08-.33.14,0,.02,0,.05,0,.07-.01.03-.03.06-.05.09-.01.02-.02.04-.03.06-.02.03-.04.07-.06.11-.01.02-.03.05-.04.07-.02.04-.05.08-.08.12-.02.03-.04.06-.06.09-.03.04-.06.08-.09.13-.02.03-.05.06-.07.1-.03.04-.08.09-.11.14-.03.03-.05.07-.08.1-.04.05-.09.1-.14.14-.03.03-.06.07-.1.1-.05.05-.12.11-.18.16-.03.03-.06.06-.1.09-.1.08-.2.17-.32.25-.6.44-1.49.64-2.2.79-.2.04-.4.09-.59.14-.57.15-1.05.35-1.38.8,0,.01-.02.02-.03.04-.29-.27-.6-.47-.96-.55-.26-.06-1.25-.25-2.99-.58-1.92-.36-4.3-.81-5.23-1.01-.1-.02-.22-.06-.34-.11-.03-.01-.06-.03-.09-.04-.1-.04-.2-.09-.31-.14-.05-.02-.1-.05-.15-.08-.1-.05-.2-.11-.31-.17-.07-.04-.13-.08-.2-.12-.09-.06-.19-.11-.28-.17-.08-.05-.17-.11-.25-.17-.08-.05-.16-.1-.24-.16-.1-.07-.2-.14-.3-.21-.07-.05-.13-.09-.2-.14-.11-.08-.21-.15-.31-.23-.06-.04-.11-.08-.17-.12-.1-.08-.19-.15-.29-.22-.02-.01-.04-.03-.06-.04-1.04-.06-2.06-.25-3.1-.28l.02.07c-.57,1.38-.75,4.07-.81,5.67-.01.42.16.82.46,1.09.02.02,1.76,1.57,3.71,3.24,2.04,1.74,7.75,4.68,9.04,4.82.02,0,.06,0,.1,0,1.05,0,7.86-.61,9.02-1.61.54-.46,1.74-2.44,3.56-5.86.11-.21.17-.45.16-.7,0-.12-.08-2.9-.17-4.48ZM68.54,95.88c-1.16.39-5.96,1.02-6.98,1.02-.02,0-.04,0-.05,0-.93-.24-5.81-2.69-7.54-4.16-1.31-1.11-2.52-2.18-3.17-2.75.04-.73.1-1.44.18-2.07,0,0,.01,0,.02.01.12.09.24.17.37.26.05.03.09.06.14.1.09.06.18.13.28.19.05.04.11.07.16.11.1.06.19.12.29.18.05.03.1.07.16.1.13.08.27.16.4.23.02.01.04.02.05.03.15.08.3.16.45.24.05.02.09.05.14.07.11.05.21.1.31.15.05.02.11.05.16.07.1.04.2.08.3.12.05.02.09.03.14.05.14.05.28.09.42.12.96.21,3.36.66,5.29,1.03,1.05.2,2.13.4,2.63.5.26.36.71,1.31.86,2.26.11.68.7,1.17,1.38,1.17h.01c.47,0,.88-.25,1.14-.61.07-.11.13-.22.18-.34,0,0,0-.02,0-.02.02-.07.04-.15.05-.22.02-.11.03-.23.05-.35.01-.09.03-.18.04-.27,0-.02,0-.04,0-.06.04-.22.08-.45.11-.66,0,0,0-.02,0-.03.01-.07.03-.14.04-.21,0-.05.02-.09.03-.14,0-.03.01-.05.02-.08.06-.28.11-.53.16-.72.05-.01.11-.03.16-.04.06-.01.12-.03.18-.04.92-.2,2.18-.48,3.26-1.27.14-.1.27-.2.4-.31.06-.05.11-.1.17-.15.07-.06.14-.12.2-.18.03.82.05,1.6.07,2.04-1.02,1.9-2.23,4.03-2.69,4.66Z"/>
      <g>
        <path class="cls-2" d="M77.55,68.35c-.02-1.17-.13-2.98-.25-4.75-.99-.06-1.99-.14-2.98-.24.12,1.74.25,3.81.27,5.04,0,.25,0,.55,0,.85l-.14,7.48c-.09,1.94-.2,2.46-.23,2.56-.6,1.52-1.43,2.49-2.38,2.82-1.88.65-5.35,1.22-9.42.85-3.17-.29-6.51-.78-7.29-2.25-.38-.72-1.27-1-2-.62-.72.38-1,1.27-.62,2,1.36,2.58,4.7,3.37,9.64,3.82,1.02.09,1.97.13,2.87.13,1.86,0,3.44-.17,4.7-.38-.17-.06-.26-.33-.05-.45.26-.15.54-.24.84-.28.29-.04.57-.08.84-.11.62-.08,1.22-.34,1.86-.28.09,0,.15.06.2.12,1.17-.57,2.58-1.77,3.58-4.31.14-.35.29-.93.42-3.49,0-.01,0-.03,0-.04l.14-7.54c0-.35,0-.67,0-.93Z"/>
        <path class="cls-2" d="M51.34,84.42s-.02-.05-.03-.07l-1.98-6.68c-.18-.61-.73-1.07-1.37-1.06-.63.02-1.15.4-1.3,1,0,.01-.01.03-.02.04-.93-.75-3.02-4.53-3.23-6.22-.09-.73.11-1.25.24-1.46.18.03.41.09.64.19.17.07.35.11.52.11l1.25,3.15c.21.52.68.87,1.23.93l3.52.33s.09,0,.14,0c.43,0,.83-.18,1.12-.51.31-.36.43-.85.32-1.31l-1.04-4.34.81-1.15c-1.02-.22-1.99-.7-3.01-.85l-.6.85c-.24.35-.33.78-.23,1.2l.71,2.98-.57-.05-1.33-3.35c-.02-.06-.05-.12-.08-.17l-1.54-2.77c-.14,0-.28-.02-.43-.04-.19.2-.42.37-.65.51-.52.3-1.08.52-1.65.7l.45.8c-.63.05-1.23.38-1.69.94-.75.89-1.09,2.26-.92,3.66.21,1.74,2.36,6.6,4.35,8.13.63.49,1.28.69,1.92.6.11-.02.22-.04.32-.06l1.1,3.71c1.01,0,2,.18,3,.26Z"/>
        <path class="cls-2" d="M70.46,67.93c-.38-.86-1.09-2.47-1.16-2.86,0-.26.28-1.07.6-1.67.03-.05.03-.11.05-.17-1.12.02-2.26.13-3.35.41-.18.56-.3,1.17-.25,1.72.07.73.58,1.91,1.39,3.77.18.41.36.82.5,1.16-.16.03-.32.06-.43.09-.35.07-1.35-.1-2.03-.28-.79-.22-1.6.24-1.82,1.02s.24,1.6,1.03,1.82c.28.08,1.51.4,2.62.4.26,0,.52-.02.75-.06.91-.17,2.15-.41,2.76-1.43.32-.54.39-1.2.18-1.86-.14-.43-.41-1.06-.85-2.05Z"/>
      </g>
      <path class="cls-9" d="M64,44.63c2.57,0,4.66-2.08,4.66-4.63s-2.09-4.63-4.66-4.63-4.66,2.08-4.66,4.63,2.09,4.63,4.66,4.63ZM64,38.32c.94,0,1.7.75,1.7,1.67s-.76,1.68-1.7,1.68-1.7-.75-1.7-1.68.76-1.67,1.7-1.67Z"/>
      <g>
        <path class="cls-6" d="M55.56,29.8c.19-.04.38-.07.57-.11.69-.12,1.37-.23,2.06-.31-.56-1.19-1.33-2.54-2.39-3.83-1.13-1.39-3.42-1.5-5.38-1.24.2.28.29.63.26.98-.02.28-.13.54-.29.76l.08.06c.41.29.65.77.62,1.28,0,0,0,0,0,.01,1.09.59,2.52,1.45,3.86,2.52.2-.04.4-.08.6-.11Z"/>
        <path class="cls-1" d="M46.16,62.17c.7-.95,2.92-3.27,8.62-4.96.04-.01.09-.03.13-.04.18-.05.38-.11.57-.16.12-.03.24-.07.36-.1.14-.04.28-.07.42-.11.18-.05.36-.09.54-.13.11-.03.23-.05.34-.08.22-.05.43-.1.65-.14.11-.02.22-.04.33-.07.23-.05.46-.09.7-.14.12-.02.23-.04.35-.06.24-.04.48-.08.72-.12.13-.02.25-.04.38-.06.25-.04.49-.07.75-.11.13-.02.27-.04.4-.06.27-.04.54-.07.82-.1.12-.01.24-.03.37-.04.4-.04.81-.09,1.23-.12.35-.03.69-.06,1.03-.09.09,0,.17-.01.25-.02.25-.02.5-.04.75-.06.08,0,.16-.01.24-.02.25-.02.5-.04.74-.05.06,0,.11,0,.17-.01.27-.02.54-.03.79-.05.03,0,.05,0,.08,0,.87-.05,1.68-.08,2.42-.09.04,0,.08,0,.12,0,.18,0,.35,0,.52,0,.14,0,.27,0,.4,0,.07,0,.13,0,.2,0,.18,0,.36,0,.54.01,0,0,0,0,0,0,.97.03,1.78.1,2.47.2v-3.31c-2.68,1.36-6.69,2.26-11.98,2.67-2.18.17-4.28.23-6.09.23-2.37,0-4.25-.11-5.21-.22-5.47-.66-9.07-1.73-11.45-2.87l4.04,11.63,2.28-1.34Z"/>
        <path class="cls-9" d="M74.2,48.01c1.02-.73,1.58-1.53,1.71-2.45.01-.09.02-.18.03-.26-.1.1-.21.21-.32.31-2,1.83-5.45,2.94-10.29,3.31-16.79,1.29-24.22-1.47-27.24-3.34.06.16.12.34.21.53.85,2.05,6.22,4.01,13.37,4.87,3.78.46,17.76.43,22.54-2.96Z"/>
        <path class="cls-1" d="M38.63,43.07s1.21,1.32,5.02,2.44c3.57,1.05,10.19,2.11,21.44,1.25,6.21-.48,8.3-2.13,8.99-3.07.52-.71.47-1.3.47-1.3-.02-.1-.03-.19-.03-.29-.01-.17,0-.33.04-.49v-5.73c-4.61-2.16-9.28-3.13-13.99-2.92-.06.01-.11.03-.17.03-1.82.09-3.66.36-5.48.8-.04,0-.08,0-.12.01-2.31.57-4.63,1.42-6.95,2.56-4.31,2.11-7.61,4.74-9.51,6.45.11.08.21.17.29.28h0ZM64,35.97c2.57,0,4.66,2.08,4.66,4.63s-2.09,4.63-4.66,4.63-4.66-2.08-4.66-4.63,2.09-4.63,4.66-4.63Z"/>
        <path class="cls-8" d="M64,42.27c.94,0,1.7-.75,1.7-1.68s-.76-1.67-1.7-1.67-1.7.75-1.7,1.67.76,1.68,1.7,1.68Z"/>
        <path class="cls-11" d="M70.96,90.05c-.06.05-.11.1-.17.15-.13.11-.26.21-.4.31-1.08.8-2.34,1.07-3.26,1.27-.06.01-.12.03-.18.04-.06.01-.11.03-.16.04-.05.19-.1.44-.16.72,0,.03-.01.05-.02.08,0,.04-.02.09-.03.14-.01.07-.03.14-.04.21,0,0,0,.02,0,.03-.04.22-.08.44-.11.66,0,.02,0,.04,0,.06-.02.09-.03.18-.04.27-.02.12-.04.23-.05.35-.01.08-.03.15-.05.22,0,0,0,.02,0,.02-.04.12-.1.24-.18.34-.25.37-.67.61-1.14.61h-.01c-.68,0-1.27-.5-1.38-1.17-.16-.95-.6-1.9-.86-2.26-.5-.1-1.58-.3-2.63-.5-1.93-.37-4.34-.82-5.29-1.03-.14-.03-.28-.07-.42-.12-.05-.01-.09-.03-.14-.05-.1-.04-.2-.07-.3-.12-.05-.02-.1-.04-.16-.07-.1-.05-.21-.09-.31-.15-.05-.02-.09-.04-.14-.07-.15-.08-.3-.16-.45-.24-.02-.01-.04-.02-.05-.03-.13-.08-.27-.15-.4-.23-.05-.03-.11-.07-.16-.1-.1-.06-.19-.12-.29-.18-.06-.04-.11-.07-.16-.11-.09-.06-.19-.13-.28-.19-.05-.03-.09-.06-.14-.1-.13-.09-.25-.18-.37-.26,0,0-.01,0-.02-.01-.07.63-.14,1.35-.18,2.07.65.57,1.86,1.64,3.17,2.75,1.73,1.47,6.61,3.92,7.54,4.16.02,0,.04,0,.05,0,1.02,0,5.81-.63,6.98-1.02.46-.62,1.67-2.75,2.69-4.66-.01-.44-.04-1.22-.07-2.04-.07.06-.13.12-.2.18Z"/>
        <path class="cls-10" d="M76.78,59.23c-.36-.49-.72-.99-2.12-1.29,0,0-.01,0-.02,0-.06-.01-.13-.02-.2-.04-1.94-.32-5.27-.26-10.11.18,0,0-.02,0-.02,0,0,0,0,0,0,0-.35.03-.7.07-1.04.11-.1.01-.2.02-.3.03-.25.03-.5.06-.74.09-.09.01-.19.02-.28.04-.31.04-.62.09-.92.13,0,0-.01,0-.02,0-.31.05-.61.1-.91.15-.08.01-.16.03-.24.04-.22.04-.44.08-.65.12-.08.02-.16.03-.23.05-.26.05-.52.11-.77.16,0,0-.02,0-.03,0-.26.06-.52.12-.77.18-.06.02-.13.03-.19.05-.19.05-.37.1-.56.14-.06.02-.13.03-.19.05-.22.06-.43.12-.63.18-.01,0-.03,0-.04.01-.22.07-.44.13-.64.2-.05.02-.1.03-.15.05-.16.05-.31.11-.46.16-.05.02-.11.04-.16.06-.17.06-.34.13-.5.19-.02,0-.03.01-.05.02-.18.07-.36.14-.52.21-.04.02-.08.03-.12.05-.13.05-.26.11-.38.16-.04.02-.09.04-.13.06-.14.06-.27.12-.4.19-.02,0-.03.02-.05.02-.14.07-.28.14-.42.21-.03.02-.06.03-.09.05-.1.05-.2.11-.3.16-.03.02-.07.04-.1.05-.1.06-.21.12-.3.18-.01,0-.03.02-.04.02-.11.07-.22.13-.32.2-.02.01-.04.03-.06.04-.08.05-.16.1-.23.15-.02.02-.05.03-.07.05-.08.05-.15.11-.22.16-.01,0-.02.02-.03.02-.08.06-.16.12-.23.18-.01.01-.03.02-.04.03-.06.05-.12.09-.17.14-.02.01-.03.03-.05.04-.06.05-.11.09-.16.14,0,0-.01,0-.02.01,0,0-.01,0-.02.01.33.27.75.52,1.22.75.01,0,.03,0,.04.01.54.25,1.12.46,1.7.6.21,0,.41.04.61.13.49.09.97.14,1.42.13h.02c.16,0,.32,0,.47-.02h0c.54-.05,1.11-.25,1.77-.52.39-.17.81-.36,1.27-.58,1.93-.9,4.58-2.14,8.64-2.68.24-.03.48-.06.72-.09.13-.01.25-.03.38-.04.11-.01.21-.02.32-.03.17-.02.34-.03.51-.05.04,0,.09,0,.13-.01,3.56-.3,6.99-.21,9.19-.08-.04-.04-.08-.08-.12-.12-.38-.37-.63-.73-.86-1.05Z"/>
        <path class="cls-7" d="M74.57,63.67c-.65-.01-1.34-.02-2.06,0-.11,0-.23,0-.35,0-.19,0-.39,0-.58.01-.18,0-.36.01-.54.02-.09,0-.19,0-.28.01-.14,0-.28.01-.42.02-.02.17-.07.33-.15.49-.32.6-.61,1.41-.6,1.67.07.39.78,2,1.16,2.86.44.99.71,1.62.85,2.05.21.65.15,1.31-.18,1.86-.61,1.03-1.85,1.26-2.76,1.43-.23.04-.49.06-.75.06-1.11,0-2.34-.33-2.62-.4-.79-.22-1.25-1.03-1.03-1.82s1.03-1.25,1.82-1.02c.68.19,1.68.35,2.03.28.12-.02.28-.05.43-.09-.14-.34-.32-.75-.5-1.16-.82-1.86-1.32-3.04-1.39-3.77-.07-.69.15-1.5.4-2.16-.12.01-.23.03-.35.04-2.03.27-3.64.73-5,1.23-1.06.39-1.96.81-2.77,1.19-1.41.66-2.63,1.23-4,1.36-.25.02-.5.03-.76.04-.02,0-.03,0-.05,0-.16,0-.33,0-.49-.01-.09,0-.19-.01-.29-.02-.15-.01-.3-.02-.45-.04-.05,0-.09,0-.14-.02l-1.11,1.58,1.04,4.34c.11.46,0,.95-.32,1.31-.28.32-.69.51-1.12.51-.05,0-.09,0-.14,0l-3.52-.33c-.55-.05-1.03-.41-1.23-.93l-1.25-3.15c-.17,0-.35-.04-.52-.11-.23-.1-.46-.17-.64-.19-.14.21-.33.73-.24,1.46.21,1.69,2.29,5.47,3.23,6.22,0-.01.02-.03.02-.04.15-.6.67-.98,1.3-1,.64-.02,1.19.45,1.37,1.06l1.98,6.68c.07.12.13.26.16.41l.03.12s.1.07.14.11c.09.07.19.15.29.22.05.04.11.08.17.12.1.08.2.15.31.23.07.05.13.09.2.14.1.07.2.14.3.21.08.05.16.11.24.16.09.06.17.11.25.17.1.06.19.11.28.17.07.04.14.08.2.12.11.06.21.11.31.17.05.03.1.06.15.08.11.06.21.1.31.14.03.01.06.03.09.04.13.05.24.09.34.11.92.2,3.31.65,5.23,1.01,1.73.33,2.73.52,2.99.58.36.08.68.28.96.55,0-.01.02-.03.03-.04.34-.45.82-.65,1.38-.8.19-.05.39-.09.59-.14.71-.16,1.6-.35,2.2-.79.11-.08.22-.17.32-.25.03-.03.06-.06.1-.09.06-.05.12-.11.18-.16.03-.03.06-.07.1-.1.05-.05.1-.1.14-.14.03-.03.06-.07.08-.1.04-.05.08-.09.11-.14.03-.03.05-.06.07-.1.03-.04.06-.09.09-.13.02-.03.04-.06.06-.09.03-.04.05-.08.08-.12.02-.03.03-.05.04-.07.02-.04.04-.08.06-.11.01-.02.02-.04.03-.06.02-.03.03-.06.05-.09,0-.02,0-.05,0-.07-1.29.23-2.95.42-4.92.42-.9,0-1.85-.04-2.87-.13-4.94-.45-8.28-1.24-9.64-3.82-.38-.72-.1-1.62.62-2,.72-.38,1.62-.1,2,.62.78,1.48,4.12,1.97,7.29,2.25,4.07.37,7.54-.2,9.42-.85.96-.33,1.78-1.31,2.38-2.82.02-.1.13-.62.23-2.56l.14-7.48c0-.3,0-.6,0-.85-.02-1.35-.18-3.72-.31-5.56Z"/>
      </g>
      <path class="cls-4" d="M79.53,57.79c-.2-.2-.36-.42-.55-.68-.42-.58-.84-1.09-1.45-1.52v-6.59c.73-.9,1.19-1.92,1.35-3.04.31-2.28-.78-4.29-1.36-5.18v-6.65c0-.56-.32-1.07-.82-1.32-4.99-2.49-10.17-3.69-15.37-3.61-.65-1.59-1.68-3.59-3.24-5.5-3.46-4.25-11.08-1.65-11.4-1.54-.51.18-.88.62-.97,1.15-.09.53.12,1.07.54,1.4l.36.28c-.22.24-.35.56-.37.89-.03.51.2,1,.62,1.29l.38.27c-.04.16-.06.32-.05.49.03.56.38,1.06.9,1.28.02,0,1.5.64,3.2,1.72-1.59.53-3.17,1.18-4.74,1.95-7.49,3.67-12.06,8.71-12.25,8.92-.36.4-.47.96-.29,1.47l7.68,22.1c.1.3.31.56.56.73.52-.14,1.04-.3,1.54-.5.43-.18.88-.41,1.22-.74,0,0,0,0,0,0,.01-.06.06-.12.11-.15.05-.03.1-.03.16-.02.02,0,.04,0,.06,0,.03,0,.06.01.09.02.26.03.51.03.77.03.01,0,.02.01.03.01l.62-.37c.7.68,1.62,1.23,2.61,1.67,1.16.18,2.22.74,3.38.93,0,0,0,0,0,0,.01,0,.03,0,.04,0,.15.02.3.03.45.04.1,0,.19.02.29.02.17,0,.33.01.49.01.02,0,.03,0,.05,0,.26,0,.51-.01.76-.04,1.37-.13,2.59-.7,4-1.36.81-.38,1.71-.8,2.77-1.19,1.26-.47,2.76-.89,4.58-1.17.01,0,.02-.02.03-.03.72-.23,1.46-.35,2.21-.43.74-.08,1.48-.12,2.23-.12.12,0,.18.08.21.16.03,0,.06,0,.08,0,.18,0,.36-.01.54-.02.2,0,.39,0,.58-.01.12,0,.23,0,.35,0,.5,0,.98,0,1.45,0,.02,0,.04-.03.07-.03.12.01.23.02.35.03.06,0,.13,0,.19,0,0,0,0,.01,0,.02.99.09,1.98.18,2.98.24,0-.05,0-.09,0-.14,1.3.08,2.11.16,2.13.17.62.07,1.22-.27,1.49-.83.22-.46.75-2.14-1.64-4.51ZM51.09,27.39s0,0,0-.01c.03-.5-.21-.99-.62-1.28l-.08-.06c.16-.22.27-.48.29-.76.03-.35-.06-.7-.26-.98,1.95-.25,4.24-.15,5.38,1.24,1.05,1.29,1.83,2.64,2.39,3.83-.69.08-1.37.19-2.06.31-.19.03-.38.07-.57.11-.2.04-.4.07-.6.11-1.34-1.08-2.77-1.93-3.86-2.52ZM47.85,35.53c2.32-1.13,4.64-1.99,6.95-2.56.04,0,.08,0,.12-.01,1.82-.44,3.66-.71,5.48-.8.06,0,.12-.02.17-.03,4.71-.21,9.39.77,13.99,2.92v5.73c-.04.16-.06.32-.04.49,0,.1.01.19.03.29,0,0,.06.6-.47,1.3-.69.94-2.78,2.59-8.99,3.07-11.25.87-17.87-.2-21.44-1.25-3.8-1.12-5.01-2.44-5.02-2.44h0c-.08-.11-.18-.2-.29-.28,1.9-1.71,5.2-4.34,9.51-6.45ZM38.29,46.11c-.08-.19-.15-.37-.21-.53,3.02,1.87,10.45,4.63,27.24,3.34,4.84-.37,8.29-1.49,10.29-3.31.11-.1.22-.2.32-.31,0,.09-.01.18-.03.26-.13.92-.69,1.72-1.71,2.45-4.79,3.4-18.76,3.42-22.54,2.96-7.15-.86-12.52-2.82-13.37-4.87ZM46.16,61.35l-2.28,1.34-4.04-11.63c2.38,1.14,5.98,2.21,11.45,2.87.96.12,2.84.22,5.21.22,1.81,0,3.91-.06,6.09-.23,5.29-.41,9.31-1.31,11.98-2.67v3.31c-.69-.1-1.5-.17-2.47-.2,0,0,0,0,0,0-.17,0-.35,0-.54-.01-.06,0-.13,0-.2,0-.13,0-.26,0-.4,0-.17,0-.35,0-.52,0-.04,0-.08,0-.12,0-.74.01-1.55.04-2.42.09-.03,0-.05,0-.08,0-.26.01-.52.03-.79.05-.06,0-.11,0-.17.01-.24.02-.49.03-.74.05-.08,0-.16.01-.24.02-.25.02-.5.04-.75.06-.08,0-.17.01-.25.02-.34.03-.68.06-1.03.09-.41.04-.82.08-1.23.12-.13.01-.25.03-.37.04-.27.03-.55.07-.82.1-.14.02-.27.04-.4.06-.25.04-.5.07-.75.11-.13.02-.26.04-.38.06-.24.04-.49.08-.72.12-.12.02-.24.04-.35.06-.24.04-.47.09-.7.14-.11.02-.22.04-.33.07-.22.05-.44.09-.65.14-.11.03-.23.05-.34.08-.18.04-.36.09-.54.13-.14.04-.28.07-.42.11-.12.03-.24.07-.36.1-.19.05-.38.1-.57.16-.04.01-.09.03-.13.04-5.69,1.69-7.91,4.01-8.62,4.96ZM68.37,60.08s-.09,0-.13.01c-.17.02-.34.03-.51.05-.11.01-.21.02-.32.03-.13.01-.25.03-.38.04-.24.03-.48.06-.72.09-4.05.54-6.7,1.78-8.64,2.68-.45.21-.87.41-1.27.58-.65.28-1.23.47-1.77.52h0c-.15.01-.31.02-.47.02h-.02c-.45,0-.93-.05-1.42-.13-.19-.09-.4-.13-.61-.13-.58-.15-1.16-.35-1.7-.6-.01,0-.03,0-.04-.01-.47-.23-.89-.48-1.22-.75,0,0,.01,0,.02-.01,0,0,.01,0,.02-.01.05-.04.1-.09.16-.14.02-.01.03-.03.05-.04.05-.04.11-.09.17-.14.01-.01.03-.02.04-.03.07-.06.15-.12.23-.18.01,0,.02-.02.03-.02.07-.05.15-.11.22-.16.02-.02.05-.03.07-.05.07-.05.15-.1.23-.15.02-.01.04-.03.06-.04.1-.07.21-.13.32-.2.01,0,.03-.02.04-.02.1-.06.2-.12.3-.18.03-.02.06-.04.1-.05.1-.05.2-.11.3-.16.03-.02.06-.03.09-.05.13-.07.27-.14.42-.21.02,0,.03-.02.05-.02.13-.06.26-.12.4-.19.04-.02.09-.04.13-.06.12-.05.25-.11.38-.16.04-.02.08-.03.12-.05.17-.07.34-.14.52-.21.02,0,.03-.01.05-.02.16-.06.33-.13.5-.19.05-.02.11-.04.16-.06.15-.05.31-.11.46-.16.05-.02.1-.03.15-.05.21-.07.42-.14.64-.2.01,0,.03,0,.04-.01.21-.06.42-.12.63-.18.06-.02.13-.03.19-.05.18-.05.37-.1.56-.14.06-.02.12-.03.19-.05.25-.06.51-.12.77-.18,0,0,.02,0,.03,0,.25-.06.51-.11.77-.16.08-.02.16-.03.23-.05.21-.04.43-.08.65-.12.08-.01.16-.03.24-.04.29-.05.6-.1.91-.15,0,0,.01,0,.02,0,.3-.05.61-.09.92-.13.09-.01.19-.02.28-.04.24-.03.49-.06.74-.09.1-.01.2-.02.3-.03.34-.04.68-.07,1.04-.11,0,0,0,0,0,0,0,0,.02,0,.02,0,4.84-.44,8.17-.5,10.11-.18.07.01.14.02.2.04,0,0,.01,0,.02,0,1.41.29,1.77.79,2.12,1.29.23.32.49.68.86,1.05.04.04.08.08.12.12-2.2-.13-5.63-.22-9.19.08Z"/>
      <path class="cls-6" d="M46.61,24.95c-.22.24-.35.56-.37.89-.03.51.2,1,.62,1.29l.38.27c-.04.16-.06.32-.05.49.03.56.38,1.06.9,1.28.02,0,1.46.63,3.13,1.68h.25s.06.01.09.03c.53-.16,1.08-.2,1.62-.31.33-.07.65-.18.96-.31.27-.11.54-.22.81-.34,0-.01,0-.03,0-.04,0,0,0,0,0,0-1.34-1.08-2.77-1.93-3.86-2.52,0,0,0,0,0-.01.03-.5-.21-.99-.62-1.28l-.08-.06c.16-.22.27-.48.29-.76.03-.35-.06-.7-.26-.98,1.95-.25,4.24-.15,5.38,1.24,1.03,1.27,1.8,2.59,2.35,3.76.23-.03.47-.03.71-.03.37,0,.75-.01,1.12-.03.46-.02.92-.04,1.38-.07-.01,0-.02,0-.04,0-.65-1.59-1.68-3.59-3.24-5.5-3.46-4.25-11.08-1.65-11.4-1.54-.51.18-.88.62-.97,1.15-.09.53.12,1.07.54,1.4l.36.28Z"/>
    </g>
  </g>
</svg>