<?xml version="1.0" encoding="UTF-8"?>
<svg id="Capa_2" xmlns="http://www.w3.org/2000/svg" xmlns:xlink="http://www.w3.org/1999/xlink" viewBox="0 0 120.74 120.74">
  <defs>
    <style>
      .cls-1 {
        fill: #8d2f86;
      }

      .cls-2 {
        fill: url(#Degradado_sin_nombre_13-3);
      }

      .cls-3 {
        fill: url(#Degradado_sin_nombre_13-2);
      }

      .cls-4 {
        fill: url(#Degradado_sin_nombre_13-4);
      }

      .cls-5 {
        fill: #fff;
      }

      .cls-6 {
        fill: #29abe2;
      }

      .cls-7 {
        fill: #fdbc03;
      }

      .cls-8 {
        fill: url(#Degradado_sin_nombre_13);
      }
    </style>
    <linearGradient id="Degradado_sin_nombre_13" data-name="Degradado sin nombre 13" x1="38.23" y1="77.98" x2="82.51" y2="77.98" gradientUnits="userSpaceOnUse">
      <stop offset=".16" stop-color="#25328d"/>
      <stop offset=".72" stop-color="#4c0076"/>
    </linearGradient>
    <linearGradient id="Degradado_sin_nombre_13-2" data-name="Degradado sin nombre 13" x1="38.36" y1="41.66" x2="81.64" y2="41.66" xlink:href="#Degradado_sin_nombre_13"/>
    <linearGradient id="Degradado_sin_nombre_13-3" data-name="Degradado sin nombre 13" x1="77.91" y1="51.83" x2="78.54" y2="51.83" xlink:href="#Degradado_sin_nombre_13"/>
    <linearGradient id="Degradado_sin_nombre_13-4" data-name="Degradado sin nombre 13" x1="52.64" y1="73.37" x2="54.12" y2="73.37" xlink:href="#Degradado_sin_nombre_13"/>
  </defs>
  <g id="Capa_1-2" data-name="Capa_1">
    <g>
      <circle class="cls-5" cx="60.37" cy="60.37" r="60.37"/>
      <path class="cls-8" d="M39.87,59.04c.53-.26,1.05-.58,1.61-.76,2.96-.95,6.02-1.39,9.15-1.5,1.47-.05,2.93-.24,4.4-.37.06,0,.14,0,.18-.03,2.21-1.45,4.96-1.02,7.31-1.91,2.13-.81,4.32-.88,6.53-.97.55-.02,1.19.24,1.68.54,1.47.91,3.06,1.43,4.8,1.66,1.13.15,2.24.45,3.38.58.67.08,1.36.02,2.01,0,.09,0,.17-.06.2-.14l.54-1.32-.06.07c1.14.59.98,1.5.81,2.47-.02.1-.1.17-.19.18-.53.07-1.03.14-1.59.22-.11.01-.19.11-.2.22-.03.68-.06,1.32-.08,1.96-.08,2.3-.11,4.59-.23,6.89-.17,3.29-.44,6.58-.58,9.88-.16,4.06-.23,8.13-.33,12.19-.01.59-.11,1.23.1,1.75.75,1.82.83,3.52-.02,5.78-.02.07-.08.12-.15.14-2.38.74-4.81,1.29-7.24,1.85-1.74.4-3.5.71-5.24,1.14-2.27.56-4.52,1.24-6.8,1.78-1.55.37-3.17.51-4.7.95-.79.23-1.4.27-2.11-.1-.37-.19-.81-.27-1.22-.4-2.15-.69-4.34-1.29-6.43-2.11-1.8-.71-3.55-1.59-5.22-2.54-1.13-.65-2.38-1.41-1.78-3.06.05-.15-.03-.35-.07-.52-.13-.69.27-1.15.83-1.45.48-.25,1.02-.39,1.63-.6.09-.03.16-.12.15-.22,0-.89-.03-1.82-.01-2.74.09-5.3.21-10.6.28-15.9.04-3.53-.06-7.06.07-10.59.05-1.23-.05-2.17-1.26-2.78-.07-.03-.06-.22-.08-.33l-.07.08ZM65.88,77.26c.26-3.44.5-6.67.75-9.97,0-.12-.08-.24-.21-.24-1.53-.11-2.88.28-4.22.66-1.72.49-3.37,1.17-5.24,1.07-.8-.04-1.68.16-1.68,1.24,0,2.65.03,5.31.05,8.23,0,.16.16.27.31.21,3.38-1.31,6.8-.78,10.02-.98.11,0,.2-.1.21-.21ZM51.83,79.22c.04-3.18.21-6.4.03-9.71,0-.12-.1-.21-.22-.22-3.14-.17-5.67,1.26-8.52,2.16-.09.03-.15.11-.16.2-.08,2.83-.17,5.77-.26,8.89,0,.14.12.25.26.23,2.92-.45,5.71-.88,8.67-1.34.11-.02.19-.11.19-.22ZM66.82,58.25c-3.98.7-7.68,1.35-11.37,2-.11.02-.19.11-.19.22l.04,6.98c0,.12.09.22.21.23,3.84.25,7.16-1.53,11.02-1.77.11,0,.2-.1.21-.21.11-2.46.22-4.75.34-7.22,0-.14-.12-.26-.27-.23ZM56.2,87.97c-.02.15.1.27.25.26,1.38-.14,2.62-.22,3.84-.43,1.33-.23,2.63-.63,3.95-.9.79-.17,1.19-.61,1.23-1.34.1-2.21.17-4.43.26-6.82,0-.12-.09-.23-.22-.23-3.39-.11-6.69-.24-10.01,1.24-.08.04-.14.12-.13.21,0,1.2.01,2.43.02,3.65,0,.58-.05,1.18.07,1.75.09.4.42.74.65,1.11.11.02.21.04.32.06-.07.43-.14.86-.23,1.44ZM40.15,94.61c.19.1.3.21.4.2,3.75-.31,7.45-.81,11.03-2.05,1.01-.35,2.13-.69,3.13-.84,1.05-.15,2.17-.15,3.24-.38.95-.2,1.91-.42,2.85-.68,1.89-.52,3.85-.85,5.78-.63,1.23.14,2.38.92,3.57,1.39,1.82.71,3.43,1.87,5.49,2.07.61.06,1.18.52,1.77.85.1.06.24.02.3-.08.87-1.34.64-1.79-.81-2.29-1.15-.39-2.21-.99-3.33-1.46-2.31-.98-4.62-1.97-6.97-2.85-.49-.19-1.19.02-1.77.15-.95.21-1.93.4-2.82.77-2.32.97-4.83.92-7.24,1.08-3.88.25-7.46,1.36-11.03,2.64-1.08.39-2.23.57-3.49.86-.1.02-.18.13-.17.24.03.46.06.75.07,1.01ZM42.71,82.3l.06,8.76c0,.15.15.26.29.21,1.42-.44,2.72-.85,4.03-1.22,1.18-.34,2.38-.64,3.57-.94.94-.24,1.35-.67,1.43-1.72.16-2.1-.34-4.14-.14-6.55.01-.13-.1-.25-.23-.25-3.17.1-5.93.82-8.83,1.49-.1.02-.18.12-.17.22ZM51.29,67.96c.09-.03.15-.11.16-.2.14-1.74.3-3.31.37-4.88.02-.51-.18-1.04-.31-1.61-.02-.09-.1-.17-.2-.18-2.88-.32-5.46.48-8.14,1.31-.09.03-.16.12-.16.22l.05,7.43c0,.17.19.28.34.19,2.55-1.48,5.41-1.53,7.89-2.28ZM67.23,55.36c.01-.11-.06-.22-.17-.25-1.17-.27-2.25.09-3.23.47-1.68.65-3.36,1.11-5.17,1.14-.31,0-.69-.03-.9.13-1.27.96-2.68.9-4.2.83-1.32-.06-2.67.37-4.01.57-1.61.24-3.23.46-4.85.69-1.16.17-1.33.3-1.37,1.48,0,.14.11.25.25.24,7.81-.67,15.49-2.09,23.28-3.56.1-.02.17-.1.18-.2.08-.61.13-1.06.19-1.54ZM68.81,57.71c0,.09.07.17.15.2,1.91.67,3.72,1.42,5.76,1.4.28,0,.58.14.86.24.87.31,1.73.63,2.71.98.15.05.31-.05.3-.21l-.02-2.41c0-.1-.07-.19-.17-.22-3.13-.85-6.15-1.68-9.49-2.59-.15-.04-.3.08-.29.24.06.84.12,1.6.17,2.37ZM52.65,61.88c.13,2.67.3,5.35.38,8.02.06,2.21-.03,4.43.03,6.64.09,3.13.25,6.27.56,9.4.22-1.56.77-3.07.34-4.69-.24-.89-.12-1.87-.1-2.81.05-2.99.16-5.98.19-8.96.02-2.79-.02-5.58-.04-8.44,0-.12-.09-.22-.2-.22-1.11-.08-1.18.47-1.15,1.08ZM74.26,80.79c.02-.88-.37-1.34-1.63-2.24-.1-.07-.25-.05-.32.05-1.29,1.85-1.58,3.84-1.02,5.96.28,1.08,1.26,1.13,2.41,1.23.13.01.24-.08.25-.21.12-1.71.27-3.25.31-4.8ZM75.4,66.53c.05-.64.16-1.27.21-1.91.06-.69-.51-1.57-1.06-1.68-.66-.12-1.32.35-1.46,1.26-.21,1.27-.39,2.56-.4,3.84-.01,1.51.51,1.86,2.36,1.6.11-.02.19-.1.2-.21.05-.95.09-1.93.16-2.9ZM55.64,94.53c-.44-.2-1.01-.13-1.59-.02-.17.03-.23.23-.13.36.43.57.72,1.24,1.71,1.13.36-.04.77.33,1.15.52,1.69.82,3.35,1.69,5.09,2.41.49.2,1.14.21,1.88-.14.17-.08.17-.33,0-.41-2.84-1.37-5.45-2.66-8.1-3.85ZM67.51,97.79c.19.09.48-.02.93-.13.18-.04.23-.28.09-.39-.44-.36-.74-.63-1.09-.82-1.27-.69-2.6-1.3-3.86-2-1.37-.76-2.74-1.37-4.37-1.04l-.05.42c2.78,1.33,5.55,2.67,8.35,3.96ZM54.44,98.97c.68.26,1.39.5,1.99.89.55.35,1.02.41,1.53.2.16-.06.19-.29.04-.39-3.25-2.35-6.83-3.64-9.05-3.17-.22.05-.24.36-.03.43,1.92.71,3.72,1.36,5.5,2.03ZM66.27,93.45c1.69,1.25,3.58,2.13,5.54,2.86.17.06.29-.17.14-.27-1.71-1.22-3.52-2.26-5.55-2.86-.17-.05-.27.17-.13.27ZM68.95,60.89c.36-.12.7-.23,1.19-.38.18-.06.21-.3.05-.41l-1.29-.8c-.16-.1-.36.03-.34.21l.1,1.19c.01.14.16.24.29.2Z"/>
      <path class="cls-3" d="M81.64,54.84c-.94-.06-1.74-.38-2.61-.77-1.95-.87-3.98-1.69-6.07-2.13-1.04-.22-2.1-.21-3.04-.82-.18-.12-.49-.13-.72-.08-3.31.78-6.61,1.6-9.93,2.38-.02,0-.03,0-.05,0-1.66,0-3.32.01-4.98.04-2.18.04-4.25.26-6.35.85-2.36.66-4.81,1.05-7.21,1.56-.2.04-.4.13-.63.22-.07.03-.13.09-.14.17-.18.92-.67,1.82-.05,2.77,0,0,.07-.08.07-.08-1.05.4-1.61.18-1.57-.73.05-1.2.23-2.4.38-3.65.01-.11.11-.2.22-.2.29,0,.49,0,.69,0,2.02-.1,2.41-.53,2.49-2.48.06-1.58.28-3.16.33-4.75.05-1.41.32-2.95-.18-4.19-.41-1-.53-1.99-.76-2.98-.13-.54.16-1.19-.02-1.7-.81-2.25-.1-4.55-.32-6.81-.1-1.02.31-1.74,1.13-2.23.05-.03.12-.04.18-.03,1.11.28.76,1.28,1.23,2.03.05.08.16.11.25.09,2.95-.89,5.96-1.79,8.87-2.66.06-.02.11-.06.14-.11.59-1.13-.66-2.91,1.42-3.25.06,0,.12,0,.17.04,1.36.94.23,2.55,1.21,3.78.06.07.16.1.24.07,1.64-.54,3.35-1.13,5.1-1.65,1.77-.53,3.56-.99,5.26-1.45.08-.02.14-.09.16-.16.39-1.5.49-1.57,2.27-1.75.09,0,.19.04.23.13.29.73-.19,1.73.83,2.21.8.37,1.5,1.13,2.3.65.09-.05.2-.05.27.02.7.68,1.25,1.55,1.95,1.67,1.25.21,2.19.85,3.26,1.31.19.08.39.13.61.19.13.03.26-.05.28-.18.13-.71.24-1.33.37-2.01.02-.11.12-.19.23-.19.54.03,1.01.05,1.44.07.11,0,.2.1.21.21.11,1.31.28,2.46.25,3.61-.09,2.93-.3,5.85-.44,8.78-.17,3.46-.34,6.93-.46,10.4-.04.99-.01,1.98,1.12,2.61.28.15.23.83.34,1.26l.06-.07ZM45.24,52.44c.28-1.62.4-3.27.68-4.9.36-2.06,1.35-2.99,3.31-3.29,1.97-.3,3.96.85,4.36,2.71.25,1.14.26,2.34.25,3.51-.01,1.43.02,1.51,1.5,1.34.3-.03.6-.06.89-.08.11,0,.19-.1.2-.2.18-2.06.34-4.1.56-6.13.16-1.45.63-2.8,2.25-3.34,1.69-.56,3.41-.58,4.87.5,1.5,1.11,2.53,2.52,2.5,4.49-.02,1.17.14,1.59.68,2.36.1.14.32.13.39-.03.1-.22.19-.42.2-.61.08-2.88.2-5.77.11-8.65-.02-.72-.67-1.42-1.13-2.22-.05-.09-.15-.13-.24-.11-2.09.47-4.07.92-6.04,1.38-.15.03-.3.21-.37.36-.39.82-.83,1.24-1.83.62-.3-.19-.94.07-1.41.17-2.72.53-5.42,1.1-8.15,1.6-1.02.19-2.08.2-3.11.34-1.19.17-1.54.62-1.58,1.78-.08,2.53-.16,5.06-.28,7.59-.02.45-.15.9-.26,1.44-.03.12.06.24.18.27,1.21.23,1.29.17,1.47-.9ZM69.5,43.47c0,1.65-.05,3.29-.07,4.94,0,.9,0,.96,1.08,1.41.13.05.28-.02.31-.16.27-1.28.53-2.54.79-3.8.27-1.31.74-2.48,1.99-3.25.54-.33,1.06-.4,1.55-.03.9.67,2.01,1.16,2.14,2.49.1,1.1.37,2.18.59,3.26.06.28.16.55.37.82.11.14.33.09.39-.07.11-.31.23-.61.24-.92.04-1.89,0-3.78.03-5.67.02-1.15-.64-1.73-1.69-2.03-1.48-.41-2.97-.8-4.45-1.19-.93-.25-1.86-.48-3.01-.77-.14-.04-.28.07-.28.22.01,1.61.03,3.18.03,4.75ZM63.64,50.7c1.13-.29,1.53-1.01,1.41-2.16-.08-.81-.15-1.62-.26-2.43-.28-2.1-2.83-3.68-4.68-2.87-.36.16-.78.47-.89.8-.8,2.35-1.23,4.75-.84,7.22.02.12.09.24.16.38.05.09.15.14.25.12,1.63-.35,3.25-.65,4.85-1.06ZM52.12,51.6c.72-2.21.3-4.12-1.27-6.08-.04-.05-.1-.08-.16-.09-2.08-.17-2.5.02-3.01,1.85-.48,1.72-1.23,3.48-.35,5.2.05.09.15.14.25.12l4.38-.85c.08-.02.15-.08.17-.15ZM60.8,37.69c1.88-.47,2.12-.64,2.06-2.46-.06-2.07-.28-4.13-.45-6.41-.01-.14-.14-.23-.28-.2-.76.18-1.41.28-1.97.55-.36.18-.76.72-.74,1.08.14,2.41.38,4.82.6,7.38.01.14.15.23.28.2.23-.06.36-.1.49-.13ZM63.83,28.26c.14,2.79.28,5.55.43,8.52,0,.14.14.24.28.21.8-.18,1.46-.33,2.24-.5.1-.02.17-.11.18-.21.15-2.8.12-5.59-.59-8.61-.03-.12-.16-.2-.28-.17-.71.18-1.32.34-2.08.53-.1.03-.18.12-.17.23ZM49.54,30.95l-1.81.53c-.09.03-.15.1-.16.19-.38,2.99.11,5.87.42,8.89.01.13.13.22.26.2.7-.1,1.33-.19,1.91-.28.09-.01.17-.08.19-.17.74-3.06-.54-5.95-.52-9.14,0-.15-.14-.26-.28-.22ZM72.5,49.38c-.04.67.24.99.81,1.19.91.32,1.81.62,2.75.94.07-.05.23-.1.26-.18.58-2.23.27-4.41-.54-6.52-.23-.61-.72-1.33-1.72-1.2-.07,0-.14.06-.17.13-.91,1.79-1.26,3.68-1.38,5.64ZM55.84,32.08c.13,2.21.27,4.43.41,6.64,0,.11.09.2.2.21,1.36.11,2.22-.51,2.16-1.59-.07-1.4-.14-2.8-.25-4.2-.07-.92-.2-1.83-.3-2.72-.01-.11-.11-.19-.22-.2-2.03-.06-2.11.07-2.01,1.85ZM43.77,34.74c.09,2.03.23,4.06.36,6.06,0,.11.09.2.2.21,2.01.22,2.11.1,2.03-1.72-.1-2.23-.26-4.46-.4-6.8,0-.15-.16-.25-.3-.2-1.48.51-1.95,1.12-1.89,2.46ZM71.83,36.31c.08-1.53.23-3.06.2-4.59-.05-2.22-.47-2.82-2.21-2.99-.13-.01-.25.09-.25.23.01,2.49,0,4.98.06,7.47.02,1.01.25,1.15,1.82,1.24.11,0,.22-.08.24-.19.05-.38.12-.77.14-1.15ZM77.12,31.13c-.13-.07-.29,0-.33.14-.11.4-.19.7-.24,1-.23,1.5-.47,3.01-.64,4.52-.24,2.13-.08,2.46,2.18,2.7.13.01.24-.08.25-.21.14-2.34.28-4.67.42-7.08,0-.09-.04-.17-.11-.21-.48-.27-.96-.54-1.53-.86ZM53.17,39.02c.13-1.64.25-3.28.32-4.93.04-.82-.04-1.65-.06-2.48-.04-1.88-.18-2.01-2.1-1.22-.08.03-.14.11-.14.2-.18,3.05,1.09,6.07.62,9.27-.02.14.09.26.22.26.77,0,1.09-.44,1.14-1.11ZM75.35,32.16c.14-1.45-.46-1.97-2.03-1.98-.12,0-.22.1-.23.22-.08,2.12-.18,4.25-.21,6.38-.01.91.12,1.07,1.23,1.67.14.07.31-.01.33-.16.34-2.16.71-4.13.91-6.12ZM78.55,50.82c-.12-.02-.24-.04-.36-.05-.09.41-.18.81-.27,1.22.18.02.36.03.55.05.03-.4.05-.81.08-1.21Z"/>
      <g>
        <path class="cls-6" d="M56.45,88.58c1.38-.14,2.62-.22,3.84-.43,1.33-.23,2.63-.63,3.95-.9.79-.17,1.19-.61,1.23-1.34.1-2.21.17-4.43.26-6.82,0-.12-.09-.23-.22-.23-3.39-.11-6.69-.24-10.01,1.24-.08.04-.14.12-.14.21,0,1.2.01,2.43.02,3.65,0,.58-.05,1.18.07,1.75.09.4.43.74.65,1.11.11.02.21.04.32.06-.07.43-.14.86-.23,1.44-.02.15.1.27.25.26Z"/>
        <path class="cls-6" d="M43.06,91.61c1.42-.44,2.72-.85,4.03-1.22,1.18-.34,2.38-.64,3.57-.94.6-.15,1.29-.29,1.43-1.72.16-2.1-.34-4.14-.14-6.55.01-.13-.1-.25-.23-.25-3.17.1-5.93.82-8.83,1.49-.1.02-.18.12-.17.22l.06,8.76c0,.15.15.26.29.21Z"/>
        <path class="cls-6" d="M66.75,66.05c.11-2.46.22-4.75.34-7.22,0-.14-.12-.26-.27-.23-3.98.7-7.68,1.35-11.37,2-.11.02-.19.11-.19.22l.04,6.98c0,.12.09.22.21.23,3.84.25,7.16-1.53,11.02-1.77.11,0,.21-.1.21-.21Z"/>
        <path class="cls-6" d="M65.88,77.61c.26-3.44.5-6.67.75-9.97,0-.12-.08-.24-.21-.24-1.53-.11-2.88.28-4.22.66-1.72.49-3.37,1.17-5.24,1.07-.8-.04-1.68.16-1.68,1.24,0,2.65.03,5.31.05,8.23,0,.16.16.27.31.21,3.38-1.31,6.8-.78,10.02-.98.11,0,.2-.1.21-.21Z"/>
        <path class="cls-6" d="M42.97,81.12c2.92-.45,5.71-.88,8.67-1.34.11-.02.19-.11.19-.22.04-3.18.21-6.4.03-9.71,0-.12-.1-.21-.22-.22-3.14-.17-5.67,1.26-8.52,2.16-.09.03-.15.11-.16.2-.08,2.83-.17,5.77-.26,8.89,0,.14.12.25.26.23Z"/>
        <path class="cls-6" d="M43.4,70.58c2.55-1.48,5.41-1.53,7.89-2.28.09-.03.15-.11.16-.2.14-1.74.3-3.31.37-4.88.02-.51-.18-1.04-.31-1.61-.02-.09-.1-.17-.2-.18-2.88-.32-5.46.48-8.14,1.31-.09.03-.16.12-.16.22l.05,7.43c0,.17.19.28.34.19Z"/>
      </g>
      <g>
        <path class="cls-7" d="M73.95,44.15c-.07,0-.14.06-.17.13-.91,1.79-1.26,3.68-1.38,5.64-.04.67.24.99.81,1.19.91.32,1.81.62,2.75.94.07-.05.23-.1.25-.18.58-2.23.27-4.41-.54-6.52-.23-.61-.72-1.33-1.72-1.2Z"/>
        <path class="cls-7" d="M50.58,45.97c-2.08-.17-2.5.02-3.01,1.85-.48,1.72-1.23,3.48-.35,5.2.04.09.15.14.25.12l4.38-.85c.08-.02.15-.08.17-.15.72-2.21.3-4.12-1.27-6.08-.04-.05-.1-.08-.17-.09Z"/>
        <path class="cls-7" d="M64.69,46.64c-.28-2.1-2.83-3.68-4.68-2.87-.36.16-.78.47-.89.8-.79,2.35-1.23,4.75-.84,7.22.02.12.09.24.16.38.05.09.15.14.25.12,1.63-.35,3.25-.65,4.85-1.06,1.13-.29,1.53-1.01,1.41-2.16-.08-.81-.15-1.62-.26-2.43Z"/>
      </g>
      <g>
        <path class="cls-1" d="M43.75,53.77c1.21.23,1.29.17,1.47-.9.28-1.62.4-3.27.68-4.9.37-2.06,1.35-2.99,3.31-3.29,1.97-.3,3.96.85,4.36,2.71.25,1.14.26,2.34.25,3.51-.01,1.43.02,1.51,1.5,1.34.3-.03.6-.06.89-.08.11,0,.19-.1.2-.2.18-2.06.34-4.1.56-6.13.16-1.45.63-2.8,2.25-3.34,1.69-.56,3.41-.58,4.87.5,1.5,1.11,2.53,2.52,2.5,4.49-.02,1.17.14,1.59.68,2.36.1.14.32.13.39-.03.1-.22.19-.42.2-.61.08-2.88.2-5.77.11-8.65-.02-.72-.67-1.42-1.13-2.22-.05-.09-.15-.13-.24-.11-2.09.47-4.07.92-6.04,1.38-.15.03-.3.22-.37.36-.39.82-.83,1.24-1.83.62-.3-.19-.94.07-1.41.17-2.72.53-5.42,1.1-8.15,1.6-1.02.19-2.08.2-3.11.34-1.19.17-1.54.62-1.58,1.78-.08,2.53-.16,5.06-.28,7.59-.02.45-.15.9-.26,1.44-.03.12.06.24.18.27Z"/>
        <path class="cls-2" d="M77.91,52.41c.18.02.36.03.54.05.03-.4.05-.81.08-1.21-.12-.02-.24-.04-.36-.05-.09.41-.18.81-.27,1.22Z"/>
        <path class="cls-1" d="M70.5,50.25c.13.05.28-.02.31-.16.27-1.28.53-2.54.79-3.8.27-1.31.74-2.48,1.99-3.25.54-.33,1.06-.4,1.55-.03.9.67,2.01,1.16,2.14,2.49.1,1.1.37,2.18.59,3.26.06.28.16.55.37.82.11.14.33.09.39-.07.11-.3.23-.61.24-.92.04-1.89,0-3.78.03-5.67.02-1.15-.64-1.73-1.69-2.03-1.48-.41-2.96-.8-4.45-1.19-.93-.25-1.86-.48-3.01-.77-.14-.04-.28.07-.28.22.01,1.61.03,3.18.03,4.75,0,1.65-.05,3.29-.06,4.94,0,.9,0,.96,1.08,1.41Z"/>
      </g>
      <g>
        <path class="cls-1" d="M67.15,96.44c-1.27-.69-2.6-1.3-3.86-2-1.37-.76-2.74-1.37-4.37-1.04q-.02.21-.05.42c2.78,1.33,5.55,2.67,8.35,3.96.19.09.48-.02.93-.13.18-.04.23-.28.09-.39-.44-.36-.74-.63-1.09-.82Z"/>
        <path class="cls-1" d="M48.68,96.5c-.22.05-.24.36-.03.43,1.92.71,3.72,1.36,5.5,2.03.68.26,1.39.5,1.99.89.55.35,1.02.41,1.53.2.16-.06.19-.29.04-.39-3.25-2.35-6.83-3.64-9.05-3.17Z"/>
        <path class="cls-1" d="M66.12,93.18c-.17-.05-.27.17-.13.27,1.69,1.25,3.58,2.13,5.54,2.86.17.06.29-.17.14-.27-1.71-1.22-3.52-2.26-5.55-2.86Z"/>
        <path class="cls-1" d="M63.46,98.38c-2.84-1.37-5.45-2.66-8.1-3.85-.44-.2-1.01-.13-1.59-.02-.17.03-.23.23-.13.36.43.57.72,1.24,1.71,1.13.36-.04.77.33,1.15.52,1.69.82,3.35,1.69,5.09,2.41.49.2,1.14.21,1.88-.14.17-.08.17-.33,0-.41Z"/>
      </g>
      <g>
        <path class="cls-1" d="M43.58,60.9c7.81-.67,15.49-2.09,23.28-3.56.1-.02.17-.1.18-.2.08-.61.13-1.06.19-1.54.01-.11-.06-.22-.17-.25-1.17-.27-2.25.09-3.23.47-1.68.65-3.36,1.11-5.17,1.14-.31,0-.69-.03-.9.13-1.27.96-2.68.9-4.2.83-1.32-.06-2.67.37-4.01.57-1.61.24-3.23.46-4.85.69-1.16.17-1.33.3-1.37,1.48,0,.14.11.25.25.24Z"/>
        <path class="cls-1" d="M78.4,57.95c-3.13-.85-6.15-1.68-9.49-2.59-.15-.04-.3.08-.29.24.06.84.12,1.6.17,2.37,0,.09.07.17.15.2,1.91.67,3.72,1.42,5.76,1.4.28,0,.58.14.86.24.87.31,1.73.63,2.71.98.15.05.31-.05.3-.21l-.02-2.41c0-.1-.07-.19-.17-.22Z"/>
      </g>
      <g>
        <path class="cls-1" d="M72.32,79.16c-1.29,1.85-1.58,3.84-1.02,5.96.28,1.08,1.26,1.13,2.42,1.23.13.01.24-.08.25-.21.12-1.71.27-3.25.31-4.8.02-.88-.37-1.34-1.63-2.24-.1-.07-.25-.05-.32.05Z"/>
        <path class="cls-1" d="M68.96,61.46c.36-.12.7-.23,1.19-.38.18-.06.21-.3.05-.41l-1.29-.8c-.16-.1-.36.03-.34.21l.1,1.19c.01.14.16.24.29.2Z"/>
        <path class="cls-1" d="M75.06,70.21c.11-.02.19-.1.2-.21.05-.95.09-1.93.16-2.9.05-.64.16-1.27.21-1.91.06-.69-.51-1.57-1.06-1.68-.66-.12-1.32.35-1.46,1.26-.21,1.27-.39,2.56-.4,3.84-.01,1.51.52,1.86,2.36,1.6Z"/>
      </g>
      <path class="cls-4" d="M53.06,76.55c.09,3.13.25,6.27.56,9.4.22-1.56.77-3.07.33-4.69-.24-.89-.12-1.87-.1-2.81.05-2.99.16-5.98.19-8.96.02-2.79-.02-5.58-.04-8.44,0-.12-.09-.22-.2-.22-1.11-.08-1.18.47-1.15,1.08.13,2.67.3,5.35.38,8.02.06,2.21-.03,4.43.03,6.64Z"/>
    </g>
  </g>
</svg>