<?xml version="1.0" encoding="UTF-8"?>
<svg id="Capa_2" xmlns="http://www.w3.org/2000/svg" xmlns:xlink="http://www.w3.org/1999/xlink" viewBox="0 0 120.74 120.74">
  <defs>
    <style>
      .cls-1 {
        fill: #f2f0bb;
      }

      .cls-2 {
        fill: #fff;
      }

      .cls-3 {
        fill: url(#Degradado_sin_nombre_215);
      }

      .cls-4 {
        fill: #d80363;
      }

      .cls-5 {
        fill: url(#Degradado_sin_nombre_43);
      }
    </style>
    <linearGradient id="Degradado_sin_nombre_43" data-name="Degradado sin nombre 43" x1="50.45" y1="62.97" x2="93.52" y2="62.97" gradientUnits="userSpaceOnUse">
      <stop offset=".28" stop-color="#4c0076"/>
      <stop offset=".84" stop-color="#256040"/>
    </linearGradient>
    <linearGradient id="Degradado_sin_nombre_215" data-name="Degradado sin nombre 215" x1="31.97" y1="57.53" x2="77.46" y2="57.53" gradientUnits="userSpaceOnUse">
      <stop offset=".28" stop-color="#ab0076"/>
      <stop offset=".84" stop-color="#4c4b4d"/>
    </linearGradient>
  </defs>
  <g id="Capa_1-2" data-name="Capa_1">
    <g>
      <circle class="cls-2" cx="60.37" cy="60.37" r="60.37"/>
      <g>
        <path class="cls-1" d="M91.73,42.19c-.4,16.5-.79,33.01-1.19,49.51-11.64-.65-30.57-1.71-38.29-2.24.33-7.64,1.11-16.13,1.68-25.14.29-4.58.82-20.52,1.61-24.97,1.23-.06,1.97.06,6.02.4,2.49.21,30.16,2.7,30.17,2.44Z"/>
        <path class="cls-5" d="M93.35,38.8c-.4-.8-1.99-.93-1.94-.95-.01,0-.01,0-.03,0-.28-.03-.58-.02-.86-.04-.88-.05-1.77-.12-2.65-.18-2.79-.21-11.33-.79-11.6-.79-2.76-.03-2.71.87-2.74,1.4-.02.36.12,1.49,2.76,1.75.13.01,6.48.86,11.58,1.24.56.04,1.28.16,2.01.22-.37,15.26-.73,30.53-1.1,45.79-11.55-.64-23.1-1.25-34.64-2.02.4-8.01,1.16-16,1.62-24.01.31-5.46.49-10.93.83-16.39.09-1.49.2-2.98.33-4.47.05-.59.11-1.17.17-1.76,1.85.06,3.71.33,5.53.49,2.29.2,4.58.4,6.87.6.85.07,1.7.15,2.54.22-.04-.1-.08-.2-.11-.31-.28-1.05-.33-2.16-.37-3.25,0-.03.02-.06.04-.09-2.85-.25-5.7-.49-8.55-.74-2.48-.22-5.02-.64-7.51-.53-.73.03-1.6.53-1.74,1.32-.91,5.27-.96,10.75-1.22,16.09-.32,6.56-.69,13.11-1.18,19.67-.37,4.94-.74,9.88-.95,14.83-.04,1.02.86,1.74,1.8,1.8,12.75.87,25.53,1.52,38.29,2.24.99.06,1.78-.87,1.8-1.8.39-16.36.78-32.72,1.18-49.07.02-.51,0-1.01-.17-1.28Z"/>
      </g>
      <g>
        <path class="cls-4" d="M63.31,50.32c1.42-.79,2.98-1.37,4.6-1.67,1.61-.32,3.27-.41,4.91-.33,1.64.11,3.25.39,4.8.84.77.22,1.53.49,2.26.76l2.07.84.11.05c.33.14.5.52.36.85-.09.23-.31.38-.54.4-.95.09-1.72-.03-2.5-.1l-2.29-.29c-1.5-.18-2.98-.36-4.45-.43-1.47-.1-2.94-.08-4.42-.04-1.48.05-2.95.24-4.51.35h-.04c-.37.03-.68-.24-.71-.61-.02-.27.12-.51.34-.63Z"/>
        <path class="cls-4" d="M77.5,58.09c.6-.45,1.29-.7,1.99-.85.7-.15,1.4-.17,2.09-.12.69.06,1.36.2,1.99.42.61.21,1.28.52,1.68.83l.24.19c.26.2.3.58.1.84-.07.09-.16.15-.25.19-.47.18-.8.21-1.15.27-.35.03-.67.06-.99.06-.64.02-1.24-.02-1.83-.06-.59-.05-1.17-.11-1.76-.21-.59-.08-1.18-.18-1.84-.37h-.04c-.35-.11-.56-.48-.46-.84.04-.15.13-.27.24-.35Z"/>
        <path class="cls-4" d="M62.59,58.46c.89-.57,1.86-.95,2.87-1.21,1-.27,2.04-.41,3.08-.45,1.04-.03,2.08.05,3.1.27,1.02.21,2.01.53,2.93,1.05.31.17.41.56.24.87-.1.18-.29.3-.48.32h-.01c-1.01.11-1.96.13-2.9.15l-2.8.08-2.8.08c-.94.03-1.9.06-2.91,0h-.01c-.35-.02-.62-.32-.6-.67.01-.21.13-.39.29-.5Z"/>
      </g>
      <g>
        <path class="cls-1" d="M70.03,34.05c1.87,16.4,3.75,32.8,5.62,49.21-11.62.95-30.51,2.5-38.24,3.04-.73-7.62-1.11-16.13-1.79-25.13-.35-4.58-2-20.44-1.83-24.95,1.21-.23,1.96-.21,6.02-.43,2.5-.14,30.25-1.47,30.22-1.73Z"/>
        <path class="cls-3" d="M68.23,31.42c1.87,16.4,3.75,32.8,5.62,49.21l1.8-1.8c-12.74,1.04-25.48,2.15-38.24,3.04l1.8,1.8c-.81-8.57-1.14-17.18-1.84-25.76-.45-5.47-1.02-10.94-1.43-16.41-.2-2.62-.44-5.28-.36-7.91l-1.32,1.74c.1-.02.25-.07.35-.06.27.03-.44.05.01,0,.21-.02.42-.04.63-.06.82-.06,1.65-.09,2.48-.14,1.07-.05,2.13-.11,3.2-.17,2.32-.12,4.63-.23,6.95-.35,6.1-.31,12.2-.61,18.29-.99,1.33-.08,4.65.24,5.4-1.22,1.06-2.06-2.04-3.88-3.11-1.82-.55,1.06,1.58-1.04.94-.79-.18.07.58-.04.21-.03-.3,0-.61.06-.91.08-.91.07-1.81.13-2.72.19-2.81.18-5.63.33-8.45.48-5.46.29-10.92.56-16.37.84-2.61.13-5.29.09-7.86.56-.79.14-1.3.99-1.32,1.74-.17,5.29.56,10.67,1.03,15.93.58,6.44,1.09,12.88,1.5,19.33.32,4.94.62,9.89,1.09,14.82.09.92.76,1.87,1.8,1.8,12.75-.89,25.49-1.99,38.24-3.04.88-.07,1.92-.77,1.8-1.8-1.87-16.4-3.75-32.8-5.62-49.21-.11-.97-.75-1.79-1.8-1.8-.89,0-1.91.83-1.8,1.8Z"/>
      </g>
      <g>
        <path class="cls-4" d="M42.81,43.4c1.32-.96,2.79-1.72,4.36-2.23,1.56-.52,3.2-.81,4.83-.93,1.64-.09,3.28-.01,4.87.25.79.12,1.58.3,2.34.48l2.16.58.12.03c.35.09.56.45.46.8-.07.24-.26.42-.49.47-.93.21-1.71.18-2.5.21h-2.31c-1.51,0-3,0-4.47.11-1.47.08-2.93.28-4.39.5-1.47.23-2.9.6-4.43.9h-.04c-.36.08-.71-.15-.78-.51-.05-.26.06-.52.26-.67Z"/>
        <path class="cls-4" d="M57.85,49.38c.54-.52,1.2-.85,1.87-1.08.67-.23,1.37-.34,2.06-.38.69-.03,1.38.03,2.03.17.63.13,1.33.36,1.77.62l.26.16c.28.17.37.54.2.82-.06.09-.14.17-.23.22-.44.24-.77.31-1.11.41-.34.08-.66.14-.97.18-.63.1-1.23.14-1.83.16-.59.02-1.18.03-1.78,0-.6,0-1.19-.03-1.87-.14h-.04c-.36-.07-.61-.41-.55-.77.02-.15.1-.28.2-.38Z"/>
        <path class="cls-4" d="M43.09,51.57c.81-.67,1.73-1.17,2.7-1.55.96-.4,1.97-.66,3-.82,1.03-.15,2.07-.2,3.11-.11,1.03.08,2.06.28,3.04.69.32.13.48.51.34.83-.08.2-.25.33-.44.38h-.01c-.98.23-1.93.37-2.86.51l-2.77.42-2.77.43c-.93.14-1.87.29-2.88.36h-.01c-.35.02-.65-.24-.68-.59-.01-.21.08-.41.23-.53Z"/>
        <path class="cls-4" d="M46.88,71.52c.83-.65,1.77-1.11,2.75-1.46.97-.36,1.99-.6,3.03-.72,1.03-.12,2.08-.13,3.11,0,1.03.12,2.05.35,3.01.79.32.15.46.52.32.84-.09.19-.26.32-.45.36h-.01c-.99.2-1.94.3-2.88.41l-2.78.33-2.78.33c-.94.11-1.88.23-2.89.27h-.01c-.35.01-.65-.26-.66-.61,0-.21.09-.4.25-.53Z"/>
        <path class="cls-4" d="M43.48,58.99c1.18-.97,2.53-1.71,3.96-2.27,1.43-.57,2.94-.92,4.47-1.11,1.53-.16,3.08-.16,4.59.07,1.51.21,2.99.6,4.37,1.23.34.15.49.55.33.88-.11.24-.34.38-.59.39h0c-1.47.05-2.87.03-4.26.07-1.39.05-2.75.11-4.11.28-1.36.14-2.7.38-4.05.66-1.35.29-2.7.64-4.12.97h-.02c-.36.09-.72-.14-.8-.5-.06-.26.04-.51.23-.67Z"/>
        <path class="cls-4" d="M45.07,65.8c1.31-1.02,2.8-1.86,4.38-2.43,1.58-.58,3.25-.93,4.92-1.11,1.68-.14,3.36-.1,4.99.12.82.1,1.62.26,2.41.43l2.23.54.12.03c.35.08.57.44.48.79-.06.25-.25.43-.48.48-.94.23-1.74.21-2.55.26l-2.36.04c-1.55.04-3.07.08-4.57.23-1.51.13-2.99.38-4.48.66-1.49.29-2.95.73-4.5,1.11h-.04c-.36.1-.71-.12-.8-.48-.06-.26.04-.52.24-.68Z"/>
      </g>
    </g>
  </g>
</svg>