<?xml version="1.0" encoding="UTF-8"?>
<svg id="Capa_2" xmlns="http://www.w3.org/2000/svg" xmlns:xlink="http://www.w3.org/1999/xlink" viewBox="0 0 120.74 120.74">
  <defs>
    <style>
      .cls-1 {
        fill: #e3cacd;
      }

      .cls-2 {
        fill: #036469;
      }

      .cls-3 {
        fill: #651410;
      }

      .cls-4 {
        fill: #fff;
      }

      .cls-5 {
        fill: #f38803;
      }

      .cls-6 {
        fill: #c7b299;
      }

      .cls-7 {
        fill: #d80363;
      }

      .cls-8 {
        fill: url(#Degradado_sin_nombre_17);
      }
    </style>
    <linearGradient id="Degradado_sin_nombre_17" data-name="Degradado sin nombre 17" x1="46.47" y1="97.44" x2="73.58" y2="70.34" gradientUnits="userSpaceOnUse">
      <stop offset="0" stop-color="#b224af"/>
      <stop offset=".33" stop-color="#a926a5"/>
      <stop offset=".89" stop-color="#922d8c"/>
      <stop offset="1" stop-color="#8d2f86"/>
    </linearGradient>
  </defs>
  <g id="Capa_1-2" data-name="Capa_1">
    <g>
      <circle class="cls-4" cx="60.37" cy="60.37" r="60.37"/>
      <path class="cls-1" d="M51.79,95.29c-.22,0-.45,0-.67,0,.11,0,.21.01.32,0,.19,0,.36.14.37.34.09,1.26.15,2.67.16,4.29,0,.85.11,2.08,1.05,2.57.06.03.13.05.2.05.93-.03,1.78-.88,1.79-1.7.01-2.47.02-4.16.03-5.38,0-.19.15-.34.34-.36.12-.01.24-.03.36-.05-1.31.13-2.63.22-3.95.24Z"/>
      <path class="cls-3" d="M66.65,101.04c0,.58-.61,1.18-1.27,1.21-.05,0-.1-.01-.14-.03-.67-.35-.74-1.23-.75-1.83,0-1.15-.05-2.16-.11-3.05,0-.14-.13-.24-.26-.24-.92,0-1.83-.02-2.74-.08-.16-.01-.29.11-.28.27.04.99.08,2.14.09,3.55.01,1,.35,2.16.93,2.96,1.1,1.52,3.11,1.84,5,1.09,1.87-.75,2.4-2.31,2.4-4.14v-3.83c0-.16-.15-.28-.31-.26-.76.13-1.52.23-2.29.3-.13.01-.24.12-.24.26,0,.87-.01,2.07-.02,3.83Z"/>
      <path class="cls-3" d="M54.77,99.26c0,.51-.12.99-.04,1.47.1.6-.22,1.29-1.07,1.5-1.01.28-1.54-.78-1.55-1.28-.02-2.69-.03-4.23-.05-5.28,0-.12-.08-.22-.2-.25-.86-.23-1.68-.46-2.48-.71-.17-.05-.34.07-.34.25,0,2.02,0,4.04,0,6.07,0,1.86,1.26,3.28,3.08,3.95,2.54.93,5.79-.59,5.7-4.03-.04-1.67-.03-2.97,0-4.06,0-.13-.09-.25-.22-.27-.83-.12-1.64-.27-2.44-.43-.16-.03-.31.08-.31.24-.05.83-.07,1.77-.07,2.85Z"/>
      <path class="cls-3" d="M88.61,79.84c-5.23-5.87-11.17-8.23-16.35-14.15-1.37-1.56-1.46-3.87-.21-5.51,5.18-6.82,10.38-13.62,15.56-20.44,1.91-2.52,1.7-4.11-.7-6.01-2.22-1.75-3.96-1.52-5.87.82-3.21,3.93-6.44,7.85-9.58,11.84-.84,1.07-1.75,1.46-3.07,1.44-5.2-.06-10.41-.02-15.62-.02-.92,0-1.83,0-2.9,0-.15,0-.27-.12-.27-.27,0-.75,0-1.31,0-1.86,0-4.32.02-8.63,0-12.95-.02-3.07-1.3-4.31-4.3-4.26-2.93.05-4.05,1.21-4.05,4.24,0,4.19,0,8.38,0,12.57v14.48c0,.15.12.26.26.26h9.2c.13,0,.24.09.26.22.72,3.64.53,4.02-2.35,5.77-.49.3-1,.56-1.48.87-4.51,2.89-8.99,4.19-11.31,9.29-1.75,3.86-2.52,5.9-4.21,9.79-.44,1.01-.19,1.46.8,1.85,2.35.93,4.63,2.03,6.99,2.92,0,0,.02,0,.03.01.24.12,4.09,2.13,9.58,3.85.96.3,1.96.59,3.01.86.91.24,1.84.46,2.81.65.97.2,1.96.38,2.97.53,1.07.16,2.15.27,3.25.35,1.09.08,2.18.12,3.28.1,1.6-.02,3.2-.17,4.78-.4.01,0,.03,0,.04-.01.23-.08.47-.1.7-.15,14.24-2.79,14.45-6.15,19.13-13.84.01-.02.02-.04.03-.06.4-1.16.41-1.86-.43-2.8Z"/>
      <path class="cls-3" d="M85.17,83.14c-1.79,4.5-5.36,6.82-9.73,8.35-8.8,3.09-17.48,2.2-26.07-.66-4.59-1.53-9.07-3.4-13.56-5.11-.12-.05-.19-.18-.16-.31,2.33-9.75,7.2-12.92,15.8-17.17.59-.29,1.34-.36,2.01-.37,4.88-.03,9.77-.06,14.65.03.83.02,1.89.42,2.43,1.02,4.54,5.03,9.74,6.6,14.25,11.66.75.85.78,1.54.38,2.55Z"/>
      <path class="cls-3" d="M69.52,35.1c.11-4.41-2.8-7.58-7.42-8.07-3.24-.35-6.22,1.16-8.16,4.15-2.39,3.68-2.8,8.88-.94,12.08,1.16,2,3.04,3.08,5.34,3.08.14,0,.28,0,.42-.01,6.27-.35,10.62-6.09,10.75-11.23ZM65.78,34.79c.25.12.51.24.78.36.13.06.2.21.14.34-.27.65-1,2.45-1.27,3.1-.06.14-.21.2-.35.14-.1-.04-.2-.09-.3-.13-.12-.05-.26,0-.33.1-1.23,2-3.34,3.6-5.91,3.75-1.02.05-1.7-.29-2.19-1.14-1.12-1.93-.74-5.61.83-8.03.16-.25.35-.5.56-.75.07-.08.08-.19.04-.29-.77-1.59-.95-2.93-.99-3.5-.01-.15.11-.28.26-.28l3.36-.02c.13,0,.24.1.26.23.05.38.22,1.2.76,2.18.08,0,.16,0,.24.01,3.06.33,3.87,2.1,3.95,3.69,0,.1.06.18.14.22Z"/>
      <path class="cls-3" d="M65.43,38.6c-.06.14-.21.2-.35.14-.17-.07-.34-.15-.51-.22-3.76-1.72-5.7-4.1-6.71-6.11-.83-1.66-1.03-3.07-1.07-3.65-.01-.15.11-.28.26-.28l3.36-.02c.13,0,.24.1.26.23.05.38.22,1.2.76,2.18.67,1.22,1.91,2.68,4.2,3.86.29.15.59.29.91.43.13.06.2.21.14.34l-1.26,3.1Z"/>
      <circle class="cls-3" cx="69.03" cy="41.54" r="3.77"/>
      <path class="cls-6" d="M58.55,42.46c2.57-.14,4.68-1.75,5.91-3.75.07-.11.21-.16.33-.1.1.04.2.09.3.13.14.06.29,0,.35-.14.18-.44.56-1.38.88-2.16l-.88,2.16c-.06.14-.21.2-.35.14-.17-.07-.34-.15-.51-.22-3.76-1.72-5.7-4.1-6.71-6.11-.07-.14-.13-.27-.19-.4.04.08.07.16.11.25.05.09.03.21-.04.29-.21.25-.4.5-.56.75-1.57,2.42-1.95,6.1-.83,8.03.49.85,1.17,1.2,2.19,1.14Z"/>
      <path class="cls-2" d="M65.64,34.72s.09.04.13.06c-.08-.05-.13-.12-.13-.21-.08-1.59-.89-3.36-3.95-3.69-.08,0-.16,0-.24-.01.67,1.22,1.91,2.68,4.2,3.86Z"/>
      <path class="cls-1" d="M64.36,97.08c-.16,0-.32,0-.48,0,.08,0,.15,0,.23,0,.14,0,.25.1.26.24.06.9.11,1.9.11,3.05,0,.6.08,1.48.75,1.83.04.02.09.03.14.03.66-.02,1.27-.63,1.27-1.21,0-1.76.02-2.96.02-3.83,0-.14.1-.25.24-.26.09,0,.17-.02.26-.03-.94.09-1.87.16-2.81.17Z"/>
      <path class="cls-2" d="M88.6,79.86c-5.23-5.87-11.17-8.23-16.35-14.15-.05-.06-.47-.71-.52-.77-.87-.42-1.38-.51-2.32-.66-1.54-.24-3.21.2-4.77.22-1.44.01-2.67-.11-4.11-.04-.84.04-1.99-.05-2.84,0-1.19.07-2.16-.06-3.35.05-1.6.16-2.48.26-4.08.4-.24.15-1.35.93-1.64,1.11-.49.3-1,.56-1.48.87-4.51,2.89-8.99,4.19-11.31,9.29-1.75,3.86-2.52,5.9-4.21,9.79-.44,1.01-.19,1.46.8,1.85,2.35.93,4.63,2.03,6.99,2.92,0,0,.02,0,.03.01.24.12,4.09,2.13,9.58,3.85.18.06.38.11.57.17-.07-.02-.16-.04-.23-.07-.11-.03-.21.01-.28.09.12.02.23.04.35.07,2.91.6,5.82,1.25,8.75,1.75.05,0,.09.05.12.09.53.07,1.05.14,1.59.19.03-.09.09-.16.21-.16h9.29s-.1-.06-.16-.06c.21-.06.42-.09.64-.13,14.24-2.79,14.45-6.15,19.13-13.84.01-.02.02-.04.03-.06.4-1.16.41-1.86-.43-2.8Z"/>
      <path class="cls-8" d="M70.55,69.95c-.54-.6-1.6-1.01-2.43-1.02-4.88-.09-9.77-.06-14.65-.03-.67,0-1.42.08-2.01.37-8.6,4.25-13.48,7.43-15.81,17.17-.03.13.04.26.16.31,4.49,1.71,8.97,3.58,13.56,5.11,8.59,2.86,17.27,3.75,26.07.66,4.37-1.54,7.93-3.85,9.73-8.35.4-1.01.38-1.7-.38-2.55-4.51-5.06-9.71-6.63-14.25-11.66Z"/>
      <path class="cls-7" d="M41.55,60h9.2c.13,0,.24.09.26.22.55,2.79.56,3.66-.75,4.7,1.66-.16,3.32-.33,4.98-.48,1.19-.11,2.38-.2,3.57-.25.7-.03,1.4-.06,2.09-.09,1.51-.08,3.02-.15,4.52-.14,1.57,0,3.16.09,4.7.39.52.1,1.05.25,1.57.43-.76-1.47-.65-3.26.38-4.62,5.18-6.82,10.38-13.62,15.55-20.44,1.91-2.52,1.7-4.11-.7-6.01-2.22-1.75-3.96-1.52-5.87.82-3.21,3.93-6.44,7.85-9.58,11.84-.84,1.07-1.75,1.46-3.07,1.44-5.21-.06-10.41-.02-15.62-.02-.92,0-1.83,0-2.9,0-.15,0-.27-.12-.27-.27v-1.86c0-4.32.02-8.63,0-12.95-.02-3.07-1.3-4.31-4.29-4.26-2.93.05-4.05,1.21-4.05,4.24,0,4.19,0,8.38,0,12.57v14.48c0,.15.12.26.26.26Z"/>
      <path class="cls-4" d="M45.05,56.67c-.14,0-.25-.11-.26-.24-.05-.57-.11-1-.11-1.43,0-7.23-.02-14.47.02-21.7,0-.41.22-.83.43-1.24.09-.18.35-.2.46-.02.28.44.58.88.59,1.32.06,5.74.04,11.49.04,17.48,0,.15.12.27.26.27h11.41c3.05,0,6.14-.33,9.13.08,4.35.6,7.06-1.1,9.27-4.69,1.92-3.12,4.36-5.91,6.57-8.84.19-.25.36-.57.62-.72.4-.23.82-.4,1.24-.57.19-.08.39.07.36.27-.05.43-.09.86-.29,1.2-.63,1.02-1.41,1.95-2.14,2.91-3.65,4.79-7.25,9.63-11.01,14.33-.75.93-2.06,1.42-3.61,2.4-.08.05-.12.13-.13.22,0,1.37-.02,3.37,0,5.36.01.9-.19,1.43-1.25,1.42-3.84-.03-7.69-.01-11.84-.01-.14,0-.27-.12-.27-.26,0-1.99-.07-3.91.03-5.82.07-1.35-.42-1.78-1.74-1.74-2.57.07-5.14.03-7.8.02Z"/>
      <path class="cls-5" d="M54.59,58.38c-.09,1.91-.03,3.83-.03,5.82,0,.14.12.26.27.26,4.15,0,7.99-.02,11.84.01,1.06,0,1.26-.52,1.25-1.42-.03-1.99-.01-3.99,0-5.36,0-.09.05-.17.12-.22,1.55-.98,2.86-1.46,3.61-2.4,3.76-4.71,7.35-9.54,11-14.33.73-.96,1.51-1.89,2.14-2.91.21-.33.24-.77.29-1.2.02-.2-.18-.35-.36-.27-.42.18-.85.35-1.24.57-.26.15-.43.46-.62.72-2.21,2.93-4.66,5.73-6.57,8.84-2.21,3.6-4.92,5.3-9.27,4.69-2.99-.41-6.08-.08-9.13-.08h-11.41c-.15,0-.26-.12-.26-.27,0-5.99.02-11.74-.04-17.48,0-.44-.31-.88-.59-1.32-.11-.18-.37-.16-.46.02-.21.41-.43.82-.43,1.24-.04,7.23-.03,14.47-.02,21.7,0,.43.06.86.11,1.43.01.14.13.24.26.24,2.66,0,5.23.05,7.8-.02,1.32-.04,1.81.39,1.74,1.74Z"/>
    </g>
  </g>
</svg>