<?xml version="1.0" encoding="UTF-8"?>
<svg id="Capa_2" xmlns="http://www.w3.org/2000/svg" viewBox="0 0 120.74 120.74">
  <defs>
    <style>
      .cls-1 {
        fill: #1b1464;
      }

      .cls-2 {
        fill: #651410;
      }

      .cls-3 {
        fill: #f2f0bb;
      }

      .cls-4 {
        fill: #4c0076;
      }

      .cls-5 {
        fill: #fff;
      }

      .cls-6 {
        fill: #d3d397;
      }

      .cls-7 {
        fill: #d80363;
      }
    </style>
  </defs>
  <g id="Capa_1-2" data-name="Capa_1">
    <g>
      <circle class="cls-5" cx="60.37" cy="60.37" r="60.37"/>
      <path class="cls-6" d="M77.9,39.63l5.36-3.32,13.19,31.1s-21.16,15.43-21.73,17.74c-.57,2.31-1.81,7.07-4.12,7.93s-7.72.42-9.12-1.49-20.09-1.24-21.96-.56-5.28,3.13-6.55,1.01-11.74-29.44-11.74-29.44c0,0-.25-1.37.47-1.74s5.4-1.41,5.4-1.41l-2.98-7.62s-.99-1.89.91-1.89,22.6-2.6,27.78,1.89c0,0,12.26-15,16.08-17.81,3.82-2.81,5.33-4.01,6.32-1.84.99,2.18,2.69,7.45,2.69,7.45Z"/>
      <g>
        <g>
          <g>
            <g>
              <g>
                <path class="cls-2" d="M69.44,92.36c-.19.07-.37.13-.56.2.35.14.77.06,1.03-.24l.1-.11c.05-.06.1-.11.15-.17-.24.12-.48.22-.73.32Z"/>
                <path class="cls-1" d="M94.35,58.02c-1.22-2.95-2.45-5.89-3.73-8.82-1.27-2.93-2.56-5.85-3.9-8.75-.66-1.45-1.35-2.9-2.04-4.34l-.1-.2-.03-.05v-.03c-.05-.07-.11-.15-.17-.22-.13-.14-.28-.24-.39-.28-.11-.05-.29-.09-.36-.09-.32-.01-.45.05-.56.08-.11.04-.18.07-.25.11-.27.14-.44.26-.63.39-.36.26-.68.51-1,.77l-1.79,1.5-.08.07c-.36.3-.43.83-.16,1.21.29.41.85.51,1.27.22.43-.3.69-.51,1.02-.76l.94-.71c.21-.15.41-.29.62-.43.4,1.25.79,2.5,1.21,3.74,1.01,3.03,2.06,6.05,3.14,9.05,1.07,3.01,2.18,6,3.31,8.98.87,2.34,1.78,4.66,2.68,6.98.07.17,0,.36-.16.45-2.06,1.21-4.07,2.52-6.01,3.92-2.49,1.85-4.89,3.82-7.11,5.97-2.23,2.14-4.31,4.42-6.25,6.8-.24.3-.48.61-.72.92l.94-.37c.2-.08.44.02.5.23.16.55.22,1.12.18,1.69-.02.35.4.54.64.29s.47-.5.71-.75c2.07-2.13,4.22-4.18,6.46-6.1,2.24-1.92,4.55-3.75,6.98-5.4,2.4-1.69,4.92-3.23,7.5-4.65h.02c.89-.5,1.29-1.59.9-2.55-1.2-2.96-2.36-5.93-3.59-8.87Z"/>
              </g>
              <path class="cls-1" d="M60.93,89.34c.99,1.14,2.25,1.61,3.62,1.74,1.37.13,2.8-.12,4.13-.64,1.32-.54,2.54-1.33,3.45-2.36.91-1.04,1.51-2.24,1.45-3.75v-.1c-.02-.52.38-.95.89-.97.33-.01.63.15.8.4.63.91.89,2.1.84,3.24-.07,1.15-.43,2.26-.99,3.22-1.12,1.94-2.93,3.34-4.93,4.15-2,.78-4.29.99-6.43.35-1.07-.32-2.09-.89-2.93-1.67-.82-.8-1.45-1.84-1.6-2.94-.07-.51.28-.98.79-1.06.32-.05.63.08.83.31l.07.08Z"/>
            </g>
            <path class="cls-4" d="M75.22,30.76l1.88,4.25,1.83,4.2,3.6,8.42c2.38,5.62,4.72,11.26,7.05,16.9.34.82.03,1.74-.69,2.21l-.05.03c-4.13,2.68-7.85,6.07-11.05,9.87-3.22,3.79-5.97,7.99-8.01,12.48l-.34.73c-.04.08-.11.15-.19.19-1.62.74-2.85.01-3.25-1.01l-7.09-18.15-3.5-9.09-1.73-4.56-.86-2.28-.43-1.14-.21-.57-.07-.18c-.1-.28-.12-.47-.13-.66,0-.19,0-.36.04-.56.04-.2.09-.43.31-.79l-.14.26c1.11-2.45,2.51-4.74,4.11-6.83,1.6-2.1,3.37-4.05,5.26-5.83,1.9-1.79,3.89-3.45,5.97-4.97,1.04-.76,2.09-1.51,3.15-2.22l1.57-1.06.37-.26c.15-.13.55-.37.91-.39.38-.04.79.07,1.08.27.3.2.5.48.62.74.2.44.01.95-.42,1.15-.31.14-.66.09-.91-.11l-.31-.25c-.05-.04.02.09.18.08.05.01.16-.06.07.02l-.39.32-1.5,1.2c-.99.79-1.97,1.57-2.92,2.39-1.9,1.63-3.74,3.31-5.44,5.11-1.7,1.8-3.3,3.68-4.68,5.7-1.39,2-2.57,4.13-3.5,6.33l-.14.26c.17-.27.18-.4.21-.5.02-.1.02-.17.02-.26,0-.08-.01-.17-.07-.36,0-.02.03.08.04.11l.23.56.46,1.13.93,2.25,1.84,4.51,3.67,9.03,7.02,17.57c.1.25-.09.52-.36.51l-2.63-.07c-.27,0-.45-.29-.33-.54,2.23-4.68,5.11-8.98,8.46-12.86,1.75-2,3.64-3.89,5.66-5.64,1.85-1.59,3.8-3.08,5.88-4.38.2-.13.45.07.38.3l-.29.89c-.07.23-.39.23-.48.01-2.08-5.48-4.13-10.98-6.16-16.48l-3.13-8.61-1.54-4.31-1.49-4.26-.04-.13c-.16-.47.08-.99.56-1.16.45-.16.94.06,1.13.49Z"/>
            <path class="cls-4" d="M24.64,49.15c5.6-1.62,11.52-1.76,17.26-1.13,2.88.33,5.72.87,8.53,1.57.7.17,1.4.36,2.09.56l.97.27s.29.06.58.2c.29.14.6.39.79.64.2.25.31.5.38.67l.1.24,1.61,3.92c4.4,10.7,8.72,21.44,13,32.2.03.08.03.21,0,.29-.65,1.63-2,2.01-3.01,1.59h-.01c-4.56-1.92-9.42-3.25-14.34-3.89-4.91-.63-9.93-.61-14.59.63h-.05c-.92.26-1.86-.24-2.19-1.11-2.25-5.96-4.5-11.91-6.7-17.89l-3.27-8.98-1.61-4.5-.79-2.25-.2-.58c-.09-.27-.17-.57-.14-1,.02-.22.09-.47.23-.7.14-.23.35-.41.55-.52.4-.21.72-.24,1-.25.5-.02.93.37.95.87.02.49-.35.9-.83.95h-.02c-.12.01-.19.06-.14.04.06,0,.19-.21.18-.24,0-.03.02.06.07.17l.23.53.97,2.19,1.9,4.38,3.75,8.79c2.4,5.66,4.74,11.33,7.09,17.01.09.22-.14.43-.35.32l-1.04-.51c-.21-.1-.18-.42.05-.48,2.44-.66,4.93-1,7.41-1.13,2.7-.14,5.39-.04,8.05.28,2.66.32,5.28.84,7.86,1.52,2.4.64,4.76,1.41,7.06,2.36.25.1.31.43.12.62l-1.9,1.85c-.19.19-.51.12-.61-.13l-5.97-15.25c-2.02-5.28-4.09-10.53-6.06-15.83l-1.49-3.97-.09-.25s.04.09.13.2c.09.12.25.25.39.31.13.06.26.09.07.04l-1.06-.33-1.98-.61c-2.64-.79-5.34-1.41-8.06-1.86-5.43-.91-11.01-1.07-16.42-.03h0c-.49.1-.97-.23-1.07-.72-.09-.47.2-.92.64-1.05Z"/>
          </g>
          <g>
            <path class="cls-7" d="M59.07,53.38c.36-1.59.96-3.14,1.81-4.55.83-1.42,1.87-2.72,3.02-3.89,1.17-1.15,2.45-2.17,3.82-3.02.68-.43,1.38-.82,2.08-1.18l2-.99.11-.05c.32-.16.72-.03.87.3.11.23.08.48-.06.67-.56.77-1.16,1.26-1.74,1.8l-1.74,1.52c-1.13,1-2.25,1.98-3.28,3.04-1.05,1.03-2.02,2.14-2.97,3.27-.95,1.14-1.79,2.36-2.73,3.6l-.02.03c-.22.29-.64.35-.93.12-.21-.16-.3-.43-.24-.67Z"/>
            <path class="cls-7" d="M67.86,49.85c.16-.73.51-1.38.93-1.95.42-.57.94-1.06,1.49-1.47.56-.41,1.15-.75,1.77-1,.59-.25,1.3-.46,1.81-.48l.3-.02c.33-.02.61.23.63.56,0,.11-.02.22-.07.31-.23.45-.46.69-.69.96-.24.25-.46.49-.7.7-.47.44-.94.81-1.42,1.17-.48.36-.95.69-1.46,1.01-.5.33-1,.65-1.62.94l-.04.02c-.33.16-.73.01-.89-.32-.06-.14-.08-.29-.05-.42Z"/>
            <path class="cls-7" d="M60.16,61.68c-.06-1.05.08-2.09.34-3.09.25-1.01.63-1.98,1.11-2.91.48-.92,1.06-1.8,1.74-2.58.68-.79,1.44-1.5,2.34-2.05.3-.18.69-.09.88.21.11.18.12.39.04.58h0c-.39.94-.84,1.79-1.28,2.62l-1.29,2.48-1.29,2.48c-.43.84-.87,1.69-1.41,2.54h0c-.19.31-.58.4-.88.21-.18-.11-.28-.3-.3-.5Z"/>
            <path class="cls-7" d="M69.63,71.5c.2-1.04.6-2,1.1-2.91.49-.92,1.1-1.76,1.8-2.54.7-.77,1.47-1.47,2.33-2.06.85-.59,1.77-1.09,2.78-1.4.34-.1.69.09.79.42.06.2.02.41-.1.57h0c-.61.82-1.26,1.52-1.89,2.22l-1.87,2.08-1.87,2.09c-.63.7-1.26,1.42-2,2.11h0c-.26.25-.66.24-.9-.02-.15-.15-.2-.36-.16-.56Z"/>
            <path class="cls-7" d="M62.15,66.82c.04-1.53.35-3.04.86-4.48.49-1.45,1.21-2.83,2.07-4.12.88-1.27,1.89-2.44,3.04-3.44,1.14-1.01,2.4-1.88,3.78-2.52.33-.16.73-.01.89.32.11.24.07.51-.08.7h0c-.92,1.15-1.85,2.21-2.72,3.28-.87,1.08-1.71,2.16-2.46,3.3-.78,1.12-1.47,2.3-2.14,3.51-.66,1.21-1.27,2.47-1.95,3.76h0c-.17.34-.58.47-.9.29-.23-.12-.36-.36-.36-.61Z"/>
            <path class="cls-7" d="M65.01,69.29c.34-1.63.94-3.23,1.79-4.68.84-1.46,1.88-2.8,3.05-4.02,1.19-1.19,2.5-2.24,3.9-3.12.69-.45,1.41-.85,2.12-1.22l2.05-1.02.11-.06c.32-.16.71-.03.87.29.11.23.08.49-.06.68-.58.78-1.19,1.28-1.78,1.84l-1.78,1.55c-1.16,1.03-2.3,2.04-3.35,3.12-1.07,1.07-2.04,2.21-3,3.39-.95,1.18-1.79,2.45-2.73,3.74l-.02.03c-.22.3-.63.36-.93.14-.22-.16-.31-.42-.26-.67Z"/>
          </g>
          <g>
            <path class="cls-7" d="M52.16,59.33c-1.71-.63-3.31-1.35-4.99-1.79-1.67-.46-3.33-.84-5.04-.98-1.7-.18-3.42-.17-5.18-.08-.88.05-1.76.12-2.67.19-.92.04-1.82.18-2.93.02-.35-.05-.6-.38-.55-.73.04-.27.23-.47.47-.53l.12-.03c.72-.19,1.61-.51,2.49-.78.89-.26,1.81-.51,2.75-.68,1.88-.36,3.84-.46,5.78-.28,1.95.19,3.86.71,5.63,1.48,1.8.74,3.4,1.86,4.82,3.12.27.24.3.66.06.93-.18.21-.47.27-.72.18l-.05-.02Z"/>
            <path class="cls-7" d="M49.78,62.32c-1.4-.09-2.72-.26-4.05-.34-1.33-.07-2.64-.13-3.97-.12-1.33-.01-2.66.06-4.02.1-.68.03-1.37.05-2.08.06-.71-.01-1.42.02-2.26-.17-.35-.08-.58-.43-.5-.78.05-.24.22-.42.44-.49l.11-.04,1.9-.61c.67-.2,1.36-.39,2.07-.53,1.41-.31,2.87-.46,4.33-.48,1.47.01,2.94.16,4.38.51,1.43.34,2.82.89,4.08,1.65.32.19.42.6.23.92-.13.22-.37.34-.61.32h-.03Z"/>
            <path class="cls-7" d="M57.93,79.12c-1.39-.2-2.7-.47-4.02-.65-1.32-.17-2.63-.33-3.95-.42-1.32-.12-2.65-.15-4.02-.21-.68-.02-1.37-.06-2.08-.1-.71-.07-1.42-.09-2.24-.34-.35-.1-.55-.47-.44-.82.07-.23.26-.4.48-.45l.12-.03,1.94-.46c.69-.15,1.39-.28,2.1-.37,1.43-.2,2.89-.24,4.36-.14,1.46.13,2.92.39,4.33.84,1.4.45,2.74,1.1,3.94,1.96.3.21.37.63.16.93-.15.21-.4.31-.64.27h-.03Z"/>
            <path class="cls-7" d="M56.24,69.65c-1.52-.56-2.96-1.12-4.43-1.59-1.46-.46-2.94-.84-4.44-1.1-1.49-.29-3.02-.45-4.56-.58-1.55-.12-3.12-.15-4.75-.27h0c-.37-.03-.64-.35-.62-.71.02-.27.2-.49.44-.58,1.57-.56,3.23-.9,4.92-1.02,1.69-.14,3.41-.03,5.1.26,1.68.32,3.34.83,4.87,1.6,1.53.75,2.96,1.71,4.18,2.89.26.25.27.68.02.94-.19.19-.47.25-.71.16h-.02Z"/>
            <path class="cls-7" d="M49.08,71.51c-.98.21-1.92.31-2.86.41-.94.11-1.86.2-2.8.27-.94.07-1.88.15-2.85.17-.98.01-1.94.07-3.1-.23-.33-.09-.53-.42-.44-.75.05-.19.19-.34.36-.41l.12-.05c.79-.32,1.76-.69,2.71-.93.96-.26,1.96-.44,2.97-.52,2.02-.15,4.11,0,6.03.84.32.14.47.51.33.83-.08.19-.25.32-.44.37h-.03Z"/>
            <path class="cls-7" d="M58.31,74.78c-.66-.05-1.22-.2-1.77-.37-.55-.17-1.06-.38-1.57-.61-.5-.24-.99-.5-1.47-.81-.48-.3-.96-.64-1.42-1.11h-.01c-.27-.28-.26-.72,0-.98.1-.1.22-.16.35-.18.67-.13,1.31-.09,1.93.03.62.11,1.21.31,1.78.57.56.26,1.1.59,1.58,1,.48.4.93.86,1.26,1.45.19.33.07.75-.26.93-.12.07-.26.1-.39.09h-.01Z"/>
          </g>
        </g>
        <g>
          <path class="cls-1" d="M60.09,89.68l.79-.31c-.24-.03-.47-.07-.71-.11-3.01-.38-6.06-.66-9.13-.75-3.07-.12-6.16,0-9.24.3-2.37.25-4.73.65-7.07,1.19-.18.04-.36-.05-.43-.22-.92-2.3-1.84-4.61-2.8-6.9-1.22-2.95-2.45-5.89-3.72-8.81-1.26-2.93-2.55-5.85-3.89-8.75-.51-1.12-1.04-2.24-1.57-3.36-.1-.2,0-.44.21-.51.19-.07.38-.13.58-.19.72-.21,1.49-.41,2.22-.54h.03c.47-.1.79-.54.73-1.02-.06-.5-.52-.85-1.02-.79-.85.11-1.64.25-2.46.44-.41.1-.82.2-1.26.36-.22.08-.44.17-.71.31-.14.09-.28.16-.48.37-.1.11-.21.25-.31.5-.1.25-.08.65.02.87.48,1.52.97,3.04,1.48,4.56,1.01,3.03,2.06,6.04,3.14,9.04,1.07,3.01,2.19,5.99,3.31,8.98,1.12,2.99,2.3,5.95,3.44,8.92.37.96,1.43,1.51,2.44,1.23h.01c2.79-.78,5.65-1.33,8.54-1.7,2.89-.4,5.82-.56,8.77-.66,2.95-.07,5.92-.03,8.9.08l1.31.05c.36.01.52-.43.24-.67-.62-.51-1.1-1.15-1.4-1.91ZM21.72,61.8s0,0,0,0c-.06.05-.03.02,0,0Z"/>
          <path class="cls-2" d="M69.44,92.36c-.18.07-.37.13-.55.19h.03c.25.01.48-.09.65-.25-.04.02-.08.04-.12.05Z"/>
        </g>
      </g>
      <path class="cls-3" d="M55.69,52.9l.46,1.13.93,2.25,1.84,4.51,3.67,9.03,5.56,13.91c1.89-3.32,4.12-6.42,6.6-9.3,1.75-2,3.64-3.89,5.66-5.64,1.64-1.42,3.37-2.74,5.2-3.93-1.98-5.23-3.94-10.47-5.88-15.73l-3.13-8.61-1.54-4.31-1.4-4.03-.22.19-1.5,1.2c-.99.79-1.97,1.57-2.92,2.39-1.9,1.63-3.74,3.31-5.44,5.11-1.7,1.8-3.3,3.68-4.68,5.7-1.3,1.88-2.41,3.86-3.31,5.91l.1.23ZM62.5,61.97h0c-.19.31-.58.4-.88.21-.18-.11-.28-.3-.3-.5-.06-1.05.08-2.09.33-3.09.25-1.01.63-1.98,1.11-2.91.48-.92,1.06-1.8,1.74-2.58.68-.79,1.44-1.5,2.34-2.05.3-.18.69-.09.88.21.11.18.12.39.04.58h0c-.39.94-.84,1.79-1.28,2.62l-1.29,2.48-1.29,2.48c-.43.84-.87,1.69-1.41,2.54ZM64.58,67.15c-.17.33-.58.45-.9.28-.23-.12-.36-.36-.36-.61.04-1.53.35-3.04.86-4.48.49-1.45,1.21-2.83,2.07-4.12.88-1.27,1.89-2.44,3.04-3.44,1.14-1.01,2.4-1.88,3.78-2.52.33-.16.73-.01.89.32.11.24.07.51-.08.7h0c-.92,1.15-1.85,2.21-2.72,3.28-.87,1.08-1.71,2.16-2.46,3.3-.78,1.12-1.47,2.3-2.14,3.51-.66,1.21-1.27,2.47-1.95,3.76h0ZM79.5,63.58h0c-.61.82-1.26,1.52-1.89,2.22l-1.87,2.08-1.87,2.09c-.63.7-1.26,1.42-2,2.11h0c-.26.25-.66.24-.9-.02-.15-.15-.2-.36-.16-.56.2-1.04.6-2,1.1-2.91.49-.92,1.1-1.76,1.8-2.54.7-.77,1.47-1.47,2.33-2.06.85-.59,1.77-1.09,2.78-1.4.34-.1.69.09.79.42.06.2.02.41-.1.57ZM77.03,56.25l2.05-1.02.11-.06c.32-.16.71-.03.88.29.11.23.08.49-.06.68-.58.78-1.19,1.28-1.78,1.84l-1.78,1.55c-1.16,1.03-2.3,2.04-3.35,3.12-1.07,1.07-2.04,2.21-3,3.39-.95,1.18-1.79,2.45-2.73,3.74l-.02.03c-.22.3-.63.36-.92.15-.22-.16-.31-.42-.26-.67.34-1.63.94-3.23,1.79-4.68.84-1.46,1.88-2.8,3.05-4.02,1.19-1.19,2.5-2.24,3.9-3.12.69-.45,1.41-.85,2.12-1.22ZM75.34,44.92c.33-.02.61.23.63.56,0,.11-.02.22-.07.31-.23.45-.46.69-.69.96-.24.25-.46.49-.7.7-.47.44-.94.81-1.42,1.17-.48.36-.95.69-1.46,1.01-.5.33-1,.65-1.62.94l-.04.02c-.33.16-.73.01-.89-.32-.06-.14-.08-.29-.05-.42.16-.73.51-1.38.93-1.95.42-.57.94-1.06,1.49-1.47.55-.41,1.15-.75,1.77-1,.59-.25,1.3-.46,1.81-.48l.3-.02ZM62.05,48.83c.83-1.42,1.87-2.72,3.02-3.89,1.17-1.15,2.46-2.17,3.82-3.02.68-.43,1.38-.82,2.08-1.18l2-.99.11-.05c.32-.16.71-.03.87.3.11.23.08.48-.06.67-.56.77-1.16,1.26-1.74,1.8l-1.74,1.52c-1.13,1-2.25,1.98-3.28,3.04-1.05,1.03-2.02,2.14-2.97,3.27-.95,1.14-1.79,2.36-2.73,3.6l-.02.03c-.22.29-.64.35-.93.12-.21-.16-.3-.43-.24-.67.36-1.59.96-3.14,1.81-4.55Z"/>
      <path class="cls-3" d="M28.12,58.4l3.75,8.79c2.27,5.36,4.5,10.74,6.72,16.11,2.13-.5,4.29-.78,6.44-.9,2.7-.14,5.39-.04,8.05.28,2.66.32,5.28.84,7.86,1.52,1.08.29,2.15.6,3.21.95l-4.5-11.51c-2.02-5.28-4.09-10.53-6.06-15.83l-1.43-3.8-.62-.2-1.98-.61c-2.64-.79-5.34-1.41-8.06-1.86-5.43-.91-11.01-1.07-16.42-.03h0s-.03,0-.04,0l.23.52.96,2.19,1.9,4.38ZM33.1,62.75c-.35-.08-.58-.43-.5-.78.05-.24.22-.42.44-.49l.11-.04,1.9-.61c.67-.2,1.36-.39,2.07-.53,1.41-.31,2.87-.46,4.33-.48,1.47.01,2.94.16,4.38.51,1.43.34,2.82.89,4.08,1.65.31.19.42.6.23.92-.13.22-.37.34-.61.32h-.03c-1.4-.09-2.72-.26-4.05-.34-1.33-.07-2.64-.13-3.97-.12-1.33-.01-2.66.06-4.02.1-.68.03-1.37.05-2.08.06-.71-.01-1.42.02-2.26-.17ZM37.18,73.03c-.33-.09-.53-.42-.44-.75.05-.19.19-.34.36-.41l.12-.05c.79-.32,1.76-.69,2.71-.93.96-.26,1.96-.44,2.97-.52,2.02-.15,4.11,0,6.03.84.32.14.47.51.33.83-.08.19-.25.32-.44.37h-.03c-.98.22-1.92.31-2.86.42-.94.11-1.86.2-2.8.27-.94.07-1.88.15-2.85.17-.98.01-1.94.07-3.1-.23ZM58.3,79.75c-.15.21-.4.31-.64.27h-.03c-1.39-.2-2.7-.47-4.02-.65-1.32-.17-2.63-.33-3.95-.42-1.32-.12-2.65-.15-4.02-.21-.68-.02-1.37-.06-2.08-.1-.71-.07-1.42-.09-2.24-.34-.35-.1-.55-.47-.44-.82.07-.23.26-.4.48-.45l.12-.03,1.94-.46c.69-.15,1.39-.28,2.1-.37,1.43-.2,2.89-.24,4.36-.14,1.46.13,2.92.39,4.33.84,1.4.45,2.74,1.1,3.94,1.96.3.21.37.63.15.93ZM58.68,74.65c.19.33.07.75-.26.93-.12.07-.26.1-.39.09h-.01c-.66-.05-1.22-.2-1.77-.37-.55-.17-1.06-.38-1.57-.61-.5-.24-.99-.5-1.47-.81-.48-.3-.96-.64-1.42-1.11h-.01c-.27-.28-.26-.72,0-.98.1-.1.22-.16.35-.18.67-.13,1.31-.09,1.93.03.62.11,1.21.31,1.78.57.56.26,1.1.59,1.58,1,.48.4.93.86,1.26,1.45ZM56.66,69.46c.26.25.27.68.02.94-.19.19-.47.25-.71.16h-.02c-1.52-.57-2.96-1.13-4.43-1.6-1.46-.46-2.94-.84-4.44-1.1-1.49-.29-3.02-.45-4.56-.58-1.55-.12-3.12-.15-4.75-.27h0c-.37-.03-.64-.35-.62-.71.02-.27.2-.49.44-.58,1.57-.56,3.23-.9,4.92-1.02,1.69-.14,3.41-.03,5.1.26,1.68.32,3.34.83,4.87,1.6,1.53.75,2.96,1.71,4.18,2.89ZM30.99,56.32l.12-.03c.72-.19,1.61-.51,2.49-.78.89-.26,1.81-.51,2.75-.68,1.88-.36,3.84-.46,5.78-.28,1.95.19,3.86.71,5.63,1.48,1.8.74,3.4,1.86,4.82,3.12.27.24.3.66.06.93-.18.21-.47.27-.72.18l-.05-.02c-1.71-.63-3.31-1.35-4.99-1.79-1.67-.46-3.33-.84-5.04-.98-1.7-.18-3.42-.17-5.18-.08-.88.05-1.76.12-2.67.19-.92.04-1.82.18-2.93.02-.35-.05-.6-.38-.55-.73.04-.27.23-.47.47-.53Z"/>
    </g>
  </g>
</svg>